<svg width="48" height="48" viewBox="0 0 48 48" fill="none" xmlns="http://www.w3.org/2000/svg">
<rect width="48" height="48" rx="6" fill="#F3CA52"/>
<path d="M32.2677 15.7322L32.9748 15.0251V15.0251L32.2677 15.7322ZM18.5 33.0355V34.0355C18.7652 34.0355 19.0196 33.9301 19.2071 33.7426L18.5 33.0355ZM15 33.0355H14C14 33.5878 14.4477 34.0355 15 34.0355V33.0355ZM15 29.4644L14.2929 28.7573C14.1054 28.9448 14 29.1992 14 29.4644H15ZM29.4393 16.4393C30.0251 15.8536 30.9748 15.8536 31.5606 16.4393L32.9748 15.0251C31.608 13.6583 29.3919 13.6583 28.0251 15.0251L29.4393 16.4393ZM31.5606 16.4393C32.1464 17.0251 32.1464 17.9749 31.5606 18.5607L32.9748 19.9749C34.3417 18.608 34.3417 16.392 32.9748 15.0251L31.5606 16.4393ZM31.5606 18.5607L17.7929 32.3284L19.2071 33.7426L32.9748 19.9749L31.5606 18.5607ZM18.5 32.0355H15V34.0355H18.5V32.0355ZM28.0251 15.0251L14.2929 28.7573L15.7071 30.1715L29.4393 16.4393L28.0251 15.0251ZM14 29.4644V33.0355H16V29.4644H14ZM26.5251 17.9393L30.0606 21.4749L31.4748 20.0607L27.9393 16.5251L26.5251 17.9393Z" fill="#1F2937"/>
</svg>
