<svg width="48" height="48" viewBox="0 0 48 48" fill="none" xmlns="http://www.w3.org/2000/svg">
<rect width="48" height="48" rx="6" fill="#F3CA52"/>
<path d="M21 17H19C17.8954 17 17 17.8954 17 19V31C17 32.1046 17.8954 33 19 33H29C30.1046 33 31 32.1046 31 31V19C31 17.8954 30.1046 17 29 17H27M21 17C21 18.1046 21.8954 19 23 19H25C26.1046 19 27 18.1046 27 17M21 17C21 15.8954 21.8954 15 23 15H25C26.1046 15 27 15.8954 27 17M24 24H27M24 28H27M21 24H21.01M21 28H21.01" stroke="#1F2937" stroke-width="2" stroke-linecap="round"/>
</svg>
