<svg width="393" height="404" viewBox="0 0 393 404" fill="none" xmlns="http://www.w3.org/2000/svg">
<g clip-path="url(#clip0_1146_127)">
<path d="M-195.5 0H-191.5V4H-195.5V0Z" fill="#E5E7EB"/>
<path d="M-175.5 0H-171.5V4H-175.5V0Z" fill="#E5E7EB"/>
<path d="M-155.5 0H-151.5V4H-155.5V0Z" fill="#E5E7EB"/>
<path d="M-135.5 0H-131.5V4H-135.5V0Z" fill="#E5E7EB"/>
<path d="M-115.5 0H-111.5V4H-115.5V0Z" fill="#E5E7EB"/>
<path d="M-95.5 0H-91.5V4H-95.5V0Z" fill="#E5E7EB"/>
<path d="M-75.5 0H-71.5V4H-75.5V0Z" fill="#E5E7EB"/>
<path d="M-55.5 0H-51.5V4H-55.5V0Z" fill="#E5E7EB"/>
<path d="M-35.5 0H-31.5V4H-35.5V0Z" fill="#E5E7EB"/>
<path d="M-15.5 0H-11.5V4H-15.5V0Z" fill="#E5E7EB"/>
<path d="M4.5 0H8.5V4H4.5V0Z" fill="#E5E7EB"/>
<path d="M24.5 0H28.5V4H24.5V0Z" fill="#E5E7EB"/>
<path d="M44.5 0H48.5V4H44.5V0Z" fill="#E5E7EB"/>
<path d="M64.5 0H68.5V4H64.5V0Z" fill="#E5E7EB"/>
<path d="M84.5 0H88.5V4H84.5V0Z" fill="#E5E7EB"/>
<path d="M104.5 0H108.5V4H104.5V0Z" fill="#E5E7EB"/>
<path d="M124.5 0H128.5V4H124.5V0Z" fill="#E5E7EB"/>
<path d="M144.5 0H148.5V4H144.5V0Z" fill="#E5E7EB"/>
<path d="M164.5 0H168.5V4H164.5V0Z" fill="#E5E7EB"/>
<path d="M184.5 0H188.5V4H184.5V0Z" fill="#E5E7EB"/>
<path d="M204.5 0H208.5V4H204.5V0Z" fill="#E5E7EB"/>
<path d="M-195.5 20H-191.5V24H-195.5V20Z" fill="#E5E7EB"/>
<path d="M-175.5 20H-171.5V24H-175.5V20Z" fill="#E5E7EB"/>
<path d="M-155.5 20H-151.5V24H-155.5V20Z" fill="#E5E7EB"/>
<path d="M-135.5 20H-131.5V24H-135.5V20Z" fill="#E5E7EB"/>
<path d="M-115.5 20H-111.5V24H-115.5V20Z" fill="#E5E7EB"/>
<path d="M-95.5 20H-91.5V24H-95.5V20Z" fill="#E5E7EB"/>
<path d="M-75.5 20H-71.5V24H-75.5V20Z" fill="#E5E7EB"/>
<path d="M-55.5 20H-51.5V24H-55.5V20Z" fill="#E5E7EB"/>
<path d="M-35.5 20H-31.5V24H-35.5V20Z" fill="#E5E7EB"/>
<path d="M-15.5 20H-11.5V24H-15.5V20Z" fill="#E5E7EB"/>
<path d="M4.5 20H8.5V24H4.5V20Z" fill="#E5E7EB"/>
<path d="M24.5 20H28.5V24H24.5V20Z" fill="#E5E7EB"/>
<path d="M44.5 20H48.5V24H44.5V20Z" fill="#E5E7EB"/>
<path d="M64.5 20H68.5V24H64.5V20Z" fill="#E5E7EB"/>
<path d="M84.5 20H88.5V24H84.5V20Z" fill="#E5E7EB"/>
<path d="M104.5 20H108.5V24H104.5V20Z" fill="#E5E7EB"/>
<path d="M124.5 20H128.5V24H124.5V20Z" fill="#E5E7EB"/>
<path d="M144.5 20H148.5V24H144.5V20Z" fill="#E5E7EB"/>
<path d="M164.5 20H168.5V24H164.5V20Z" fill="#E5E7EB"/>
<path d="M184.5 20H188.5V24H184.5V20Z" fill="#E5E7EB"/>
<path d="M204.5 20H208.5V24H204.5V20Z" fill="#E5E7EB"/>
<path d="M-195.5 40H-191.5V44H-195.5V40Z" fill="#E5E7EB"/>
<path d="M-175.5 40H-171.5V44H-175.5V40Z" fill="#E5E7EB"/>
<path d="M-155.5 40H-151.5V44H-155.5V40Z" fill="#E5E7EB"/>
<path d="M-135.5 40H-131.5V44H-135.5V40Z" fill="#E5E7EB"/>
<path d="M-115.5 40H-111.5V44H-115.5V40Z" fill="#E5E7EB"/>
<path d="M-95.5 40H-91.5V44H-95.5V40Z" fill="#E5E7EB"/>
<path d="M-75.5 40H-71.5V44H-75.5V40Z" fill="#E5E7EB"/>
<path d="M-55.5 40H-51.5V44H-55.5V40Z" fill="#E5E7EB"/>
<path d="M-35.5 40H-31.5V44H-35.5V40Z" fill="#E5E7EB"/>
<path d="M-15.5 40H-11.5V44H-15.5V40Z" fill="#E5E7EB"/>
<path d="M4.5 40H8.5V44H4.5V40Z" fill="#E5E7EB"/>
<path d="M24.5 40H28.5V44H24.5V40Z" fill="#E5E7EB"/>
<path d="M44.5 40H48.5V44H44.5V40Z" fill="#E5E7EB"/>
<path d="M64.5 40H68.5V44H64.5V40Z" fill="#E5E7EB"/>
<path d="M84.5 40H88.5V44H84.5V40Z" fill="#E5E7EB"/>
<path d="M104.5 40H108.5V44H104.5V40Z" fill="#E5E7EB"/>
<path d="M124.5 40H128.5V44H124.5V40Z" fill="#E5E7EB"/>
<path d="M144.5 40H148.5V44H144.5V40Z" fill="#E5E7EB"/>
<path d="M164.5 40H168.5V44H164.5V40Z" fill="#E5E7EB"/>
<path d="M184.5 40H188.5V44H184.5V40Z" fill="#E5E7EB"/>
<path d="M204.5 40H208.5V44H204.5V40Z" fill="#E5E7EB"/>
<path d="M-195.5 60H-191.5V64H-195.5V60Z" fill="#E5E7EB"/>
<path d="M-175.5 60H-171.5V64H-175.5V60Z" fill="#E5E7EB"/>
<path d="M-155.5 60H-151.5V64H-155.5V60Z" fill="#E5E7EB"/>
<path d="M-135.5 60H-131.5V64H-135.5V60Z" fill="#E5E7EB"/>
<path d="M-115.5 60H-111.5V64H-115.5V60Z" fill="#E5E7EB"/>
<path d="M-95.5 60H-91.5V64H-95.5V60Z" fill="#E5E7EB"/>
<path d="M-75.5 60H-71.5V64H-75.5V60Z" fill="#E5E7EB"/>
<path d="M-55.5 60H-51.5V64H-55.5V60Z" fill="#E5E7EB"/>
<path d="M-35.5 60H-31.5V64H-35.5V60Z" fill="#E5E7EB"/>
<path d="M-15.5 60H-11.5V64H-15.5V60Z" fill="#E5E7EB"/>
<path d="M4.5 60H8.5V64H4.5V60Z" fill="#E5E7EB"/>
<path d="M24.5 60H28.5V64H24.5V60Z" fill="#E5E7EB"/>
<path d="M44.5 60H48.5V64H44.5V60Z" fill="#E5E7EB"/>
<path d="M64.5 60H68.5V64H64.5V60Z" fill="#E5E7EB"/>
<path d="M84.5 60H88.5V64H84.5V60Z" fill="#E5E7EB"/>
<path d="M104.5 60H108.5V64H104.5V60Z" fill="#E5E7EB"/>
<path d="M124.5 60H128.5V64H124.5V60Z" fill="#E5E7EB"/>
<path d="M144.5 60H148.5V64H144.5V60Z" fill="#E5E7EB"/>
<path d="M164.5 60H168.5V64H164.5V60Z" fill="#E5E7EB"/>
<path d="M184.5 60H188.5V64H184.5V60Z" fill="#E5E7EB"/>
<path d="M204.5 60H208.5V64H204.5V60Z" fill="#E5E7EB"/>
<path d="M-195.5 80H-191.5V84H-195.5V80Z" fill="#E5E7EB"/>
<path d="M-175.5 80H-171.5V84H-175.5V80Z" fill="#E5E7EB"/>
<path d="M-155.5 80H-151.5V84H-155.5V80Z" fill="#E5E7EB"/>
<path d="M-135.5 80H-131.5V84H-135.5V80Z" fill="#E5E7EB"/>
<path d="M-115.5 80H-111.5V84H-115.5V80Z" fill="#E5E7EB"/>
<path d="M-95.5 80H-91.5V84H-95.5V80Z" fill="#E5E7EB"/>
<path d="M-75.5 80H-71.5V84H-75.5V80Z" fill="#E5E7EB"/>
<path d="M-55.5 80H-51.5V84H-55.5V80Z" fill="#E5E7EB"/>
<path d="M-35.5 80H-31.5V84H-35.5V80Z" fill="#E5E7EB"/>
<path d="M-15.5 80H-11.5V84H-15.5V80Z" fill="#E5E7EB"/>
<path d="M4.5 80H8.5V84H4.5V80Z" fill="#E5E7EB"/>
<path d="M24.5 80H28.5V84H24.5V80Z" fill="#E5E7EB"/>
<path d="M44.5 80H48.5V84H44.5V80Z" fill="#E5E7EB"/>
<path d="M64.5 80H68.5V84H64.5V80Z" fill="#E5E7EB"/>
<path d="M84.5 80H88.5V84H84.5V80Z" fill="#E5E7EB"/>
<path d="M104.5 80H108.5V84H104.5V80Z" fill="#E5E7EB"/>
<path d="M124.5 80H128.5V84H124.5V80Z" fill="#E5E7EB"/>
<path d="M144.5 80H148.5V84H144.5V80Z" fill="#E5E7EB"/>
<path d="M164.5 80H168.5V84H164.5V80Z" fill="#E5E7EB"/>
<path d="M184.5 80H188.5V84H184.5V80Z" fill="#E5E7EB"/>
<path d="M204.5 80H208.5V84H204.5V80Z" fill="#E5E7EB"/>
<path d="M-195.5 100H-191.5V104H-195.5V100Z" fill="#E5E7EB"/>
<path d="M-175.5 100H-171.5V104H-175.5V100Z" fill="#E5E7EB"/>
<path d="M-155.5 100H-151.5V104H-155.5V100Z" fill="#E5E7EB"/>
<path d="M-135.5 100H-131.5V104H-135.5V100Z" fill="#E5E7EB"/>
<path d="M-115.5 100H-111.5V104H-115.5V100Z" fill="#E5E7EB"/>
<path d="M-95.5 100H-91.5V104H-95.5V100Z" fill="#E5E7EB"/>
<path d="M-75.5 100H-71.5V104H-75.5V100Z" fill="#E5E7EB"/>
<path d="M-55.5 100H-51.5V104H-55.5V100Z" fill="#E5E7EB"/>
<path d="M-35.5 100H-31.5V104H-35.5V100Z" fill="#E5E7EB"/>
<path d="M-15.5 100H-11.5V104H-15.5V100Z" fill="#E5E7EB"/>
<path d="M4.5 100H8.5V104H4.5V100Z" fill="#E5E7EB"/>
<path d="M24.5 100H28.5V104H24.5V100Z" fill="#E5E7EB"/>
<path d="M44.5 100H48.5V104H44.5V100Z" fill="#E5E7EB"/>
<path d="M64.5 100H68.5V104H64.5V100Z" fill="#E5E7EB"/>
<path d="M84.5 100H88.5V104H84.5V100Z" fill="#E5E7EB"/>
<path d="M104.5 100H108.5V104H104.5V100Z" fill="#E5E7EB"/>
<path d="M124.5 100H128.5V104H124.5V100Z" fill="#E5E7EB"/>
<path d="M144.5 100H148.5V104H144.5V100Z" fill="#E5E7EB"/>
<path d="M164.5 100H168.5V104H164.5V100Z" fill="#E5E7EB"/>
<path d="M184.5 100H188.5V104H184.5V100Z" fill="#E5E7EB"/>
<path d="M204.5 100H208.5V104H204.5V100Z" fill="#E5E7EB"/>
<path d="M-195.5 120H-191.5V124H-195.5V120Z" fill="#E5E7EB"/>
<path d="M-175.5 120H-171.5V124H-175.5V120Z" fill="#E5E7EB"/>
<path d="M-155.5 120H-151.5V124H-155.5V120Z" fill="#E5E7EB"/>
<path d="M-135.5 120H-131.5V124H-135.5V120Z" fill="#E5E7EB"/>
<path d="M-115.5 120H-111.5V124H-115.5V120Z" fill="#E5E7EB"/>
<path d="M-95.5 120H-91.5V124H-95.5V120Z" fill="#E5E7EB"/>
<path d="M-75.5 120H-71.5V124H-75.5V120Z" fill="#E5E7EB"/>
<path d="M-55.5 120H-51.5V124H-55.5V120Z" fill="#E5E7EB"/>
<path d="M-35.5 120H-31.5V124H-35.5V120Z" fill="#E5E7EB"/>
<path d="M-15.5 120H-11.5V124H-15.5V120Z" fill="#E5E7EB"/>
<path d="M4.5 120H8.5V124H4.5V120Z" fill="#E5E7EB"/>
<path d="M24.5 120H28.5V124H24.5V120Z" fill="#E5E7EB"/>
<path d="M44.5 120H48.5V124H44.5V120Z" fill="#E5E7EB"/>
<path d="M64.5 120H68.5V124H64.5V120Z" fill="#E5E7EB"/>
<path d="M84.5 120H88.5V124H84.5V120Z" fill="#E5E7EB"/>
<path d="M104.5 120H108.5V124H104.5V120Z" fill="#E5E7EB"/>
<path d="M124.5 120H128.5V124H124.5V120Z" fill="#E5E7EB"/>
<path d="M144.5 120H148.5V124H144.5V120Z" fill="#E5E7EB"/>
<path d="M164.5 120H168.5V124H164.5V120Z" fill="#E5E7EB"/>
<path d="M184.5 120H188.5V124H184.5V120Z" fill="#E5E7EB"/>
<path d="M204.5 120H208.5V124H204.5V120Z" fill="#E5E7EB"/>
<path d="M-195.5 140H-191.5V144H-195.5V140Z" fill="#E5E7EB"/>
<path d="M-175.5 140H-171.5V144H-175.5V140Z" fill="#E5E7EB"/>
<path d="M-155.5 140H-151.5V144H-155.5V140Z" fill="#E5E7EB"/>
<path d="M-135.5 140H-131.5V144H-135.5V140Z" fill="#E5E7EB"/>
<path d="M-115.5 140H-111.5V144H-115.5V140Z" fill="#E5E7EB"/>
<path d="M-95.5 140H-91.5V144H-95.5V140Z" fill="#E5E7EB"/>
<path d="M-75.5 140H-71.5V144H-75.5V140Z" fill="#E5E7EB"/>
<path d="M-55.5 140H-51.5V144H-55.5V140Z" fill="#E5E7EB"/>
<path d="M-35.5 140H-31.5V144H-35.5V140Z" fill="#E5E7EB"/>
<path d="M-15.5 140H-11.5V144H-15.5V140Z" fill="#E5E7EB"/>
<path d="M4.5 140H8.5V144H4.5V140Z" fill="#E5E7EB"/>
<path d="M24.5 140H28.5V144H24.5V140Z" fill="#E5E7EB"/>
<path d="M44.5 140H48.5V144H44.5V140Z" fill="#E5E7EB"/>
<path d="M64.5 140H68.5V144H64.5V140Z" fill="#E5E7EB"/>
<path d="M84.5 140H88.5V144H84.5V140Z" fill="#E5E7EB"/>
<path d="M104.5 140H108.5V144H104.5V140Z" fill="#E5E7EB"/>
<path d="M124.5 140H128.5V144H124.5V140Z" fill="#E5E7EB"/>
<path d="M144.5 140H148.5V144H144.5V140Z" fill="#E5E7EB"/>
<path d="M164.5 140H168.5V144H164.5V140Z" fill="#E5E7EB"/>
<path d="M184.5 140H188.5V144H184.5V140Z" fill="#E5E7EB"/>
<path d="M204.5 140H208.5V144H204.5V140Z" fill="#E5E7EB"/>
<path d="M-195.5 160H-191.5V164H-195.5V160Z" fill="#E5E7EB"/>
<path d="M-175.5 160H-171.5V164H-175.5V160Z" fill="#E5E7EB"/>
<path d="M-155.5 160H-151.5V164H-155.5V160Z" fill="#E5E7EB"/>
<path d="M-135.5 160H-131.5V164H-135.5V160Z" fill="#E5E7EB"/>
<path d="M-115.5 160H-111.5V164H-115.5V160Z" fill="#E5E7EB"/>
<path d="M-95.5 160H-91.5V164H-95.5V160Z" fill="#E5E7EB"/>
<path d="M-75.5 160H-71.5V164H-75.5V160Z" fill="#E5E7EB"/>
<path d="M-55.5 160H-51.5V164H-55.5V160Z" fill="#E5E7EB"/>
<path d="M-35.5 160H-31.5V164H-35.5V160Z" fill="#E5E7EB"/>
<path d="M-15.5 160H-11.5V164H-15.5V160Z" fill="#E5E7EB"/>
<path d="M4.5 160H8.5V164H4.5V160Z" fill="#E5E7EB"/>
<path d="M24.5 160H28.5V164H24.5V160Z" fill="#E5E7EB"/>
<path d="M44.5 160H48.5V164H44.5V160Z" fill="#E5E7EB"/>
<path d="M64.5 160H68.5V164H64.5V160Z" fill="#E5E7EB"/>
<path d="M84.5 160H88.5V164H84.5V160Z" fill="#E5E7EB"/>
<path d="M104.5 160H108.5V164H104.5V160Z" fill="#E5E7EB"/>
<path d="M124.5 160H128.5V164H124.5V160Z" fill="#E5E7EB"/>
<path d="M144.5 160H148.5V164H144.5V160Z" fill="#E5E7EB"/>
<path d="M164.5 160H168.5V164H164.5V160Z" fill="#E5E7EB"/>
<path d="M184.5 160H188.5V164H184.5V160Z" fill="#E5E7EB"/>
<path d="M204.5 160H208.5V164H204.5V160Z" fill="#E5E7EB"/>
<path d="M-195.5 180H-191.5V184H-195.5V180Z" fill="#E5E7EB"/>
<path d="M-175.5 180H-171.5V184H-175.5V180Z" fill="#E5E7EB"/>
<path d="M-155.5 180H-151.5V184H-155.5V180Z" fill="#E5E7EB"/>
<path d="M-135.5 180H-131.5V184H-135.5V180Z" fill="#E5E7EB"/>
<path d="M-115.5 180H-111.5V184H-115.5V180Z" fill="#E5E7EB"/>
<path d="M-95.5 180H-91.5V184H-95.5V180Z" fill="#E5E7EB"/>
<path d="M-75.5 180H-71.5V184H-75.5V180Z" fill="#E5E7EB"/>
<path d="M-55.5 180H-51.5V184H-55.5V180Z" fill="#E5E7EB"/>
<path d="M-35.5 180H-31.5V184H-35.5V180Z" fill="#E5E7EB"/>
<path d="M-15.5 180H-11.5V184H-15.5V180Z" fill="#E5E7EB"/>
<path d="M4.5 180H8.5V184H4.5V180Z" fill="#E5E7EB"/>
<path d="M24.5 180H28.5V184H24.5V180Z" fill="#E5E7EB"/>
<path d="M44.5 180H48.5V184H44.5V180Z" fill="#E5E7EB"/>
<path d="M64.5 180H68.5V184H64.5V180Z" fill="#E5E7EB"/>
<path d="M84.5 180H88.5V184H84.5V180Z" fill="#E5E7EB"/>
<path d="M104.5 180H108.5V184H104.5V180Z" fill="#E5E7EB"/>
<path d="M124.5 180H128.5V184H124.5V180Z" fill="#E5E7EB"/>
<path d="M144.5 180H148.5V184H144.5V180Z" fill="#E5E7EB"/>
<path d="M164.5 180H168.5V184H164.5V180Z" fill="#E5E7EB"/>
<path d="M184.5 180H188.5V184H184.5V180Z" fill="#E5E7EB"/>
<path d="M204.5 180H208.5V184H204.5V180Z" fill="#E5E7EB"/>
<path d="M-195.5 200H-191.5V204H-195.5V200Z" fill="#E5E7EB"/>
<path d="M-175.5 200H-171.5V204H-175.5V200Z" fill="#E5E7EB"/>
<path d="M-155.5 200H-151.5V204H-155.5V200Z" fill="#E5E7EB"/>
<path d="M-135.5 200H-131.5V204H-135.5V200Z" fill="#E5E7EB"/>
<path d="M-115.5 200H-111.5V204H-115.5V200Z" fill="#E5E7EB"/>
<path d="M-95.5 200H-91.5V204H-95.5V200Z" fill="#E5E7EB"/>
<path d="M-75.5 200H-71.5V204H-75.5V200Z" fill="#E5E7EB"/>
<path d="M-55.5 200H-51.5V204H-55.5V200Z" fill="#E5E7EB"/>
<path d="M-35.5 200H-31.5V204H-35.5V200Z" fill="#E5E7EB"/>
<path d="M-15.5 200H-11.5V204H-15.5V200Z" fill="#E5E7EB"/>
<path d="M4.5 200H8.5V204H4.5V200Z" fill="#E5E7EB"/>
<path d="M24.5 200H28.5V204H24.5V200Z" fill="#E5E7EB"/>
<path d="M44.5 200H48.5V204H44.5V200Z" fill="#E5E7EB"/>
<path d="M64.5 200H68.5V204H64.5V200Z" fill="#E5E7EB"/>
<path d="M84.5 200H88.5V204H84.5V200Z" fill="#E5E7EB"/>
<path d="M104.5 200H108.5V204H104.5V200Z" fill="#E5E7EB"/>
<path d="M124.5 200H128.5V204H124.5V200Z" fill="#E5E7EB"/>
<path d="M144.5 200H148.5V204H144.5V200Z" fill="#E5E7EB"/>
<path d="M164.5 200H168.5V204H164.5V200Z" fill="#E5E7EB"/>
<path d="M184.5 200H188.5V204H184.5V200Z" fill="#E5E7EB"/>
<path d="M204.5 200H208.5V204H204.5V200Z" fill="#E5E7EB"/>
<path d="M-195.5 220H-191.5V224H-195.5V220Z" fill="#E5E7EB"/>
<path d="M-175.5 220H-171.5V224H-175.5V220Z" fill="#E5E7EB"/>
<path d="M-155.5 220H-151.5V224H-155.5V220Z" fill="#E5E7EB"/>
<path d="M-135.5 220H-131.5V224H-135.5V220Z" fill="#E5E7EB"/>
<path d="M-115.5 220H-111.5V224H-115.5V220Z" fill="#E5E7EB"/>
<path d="M-95.5 220H-91.5V224H-95.5V220Z" fill="#E5E7EB"/>
<path d="M-75.5 220H-71.5V224H-75.5V220Z" fill="#E5E7EB"/>
<path d="M-55.5 220H-51.5V224H-55.5V220Z" fill="#E5E7EB"/>
<path d="M-35.5 220H-31.5V224H-35.5V220Z" fill="#E5E7EB"/>
<path d="M-15.5 220H-11.5V224H-15.5V220Z" fill="#E5E7EB"/>
<path d="M4.5 220H8.5V224H4.5V220Z" fill="#E5E7EB"/>
<path d="M24.5 220H28.5V224H24.5V220Z" fill="#E5E7EB"/>
<path d="M44.5 220H48.5V224H44.5V220Z" fill="#E5E7EB"/>
<path d="M64.5 220H68.5V224H64.5V220Z" fill="#E5E7EB"/>
<path d="M84.5 220H88.5V224H84.5V220Z" fill="#E5E7EB"/>
<path d="M104.5 220H108.5V224H104.5V220Z" fill="#E5E7EB"/>
<path d="M124.5 220H128.5V224H124.5V220Z" fill="#E5E7EB"/>
<path d="M144.5 220H148.5V224H144.5V220Z" fill="#E5E7EB"/>
<path d="M164.5 220H168.5V224H164.5V220Z" fill="#E5E7EB"/>
<path d="M184.5 220H188.5V224H184.5V220Z" fill="#E5E7EB"/>
<path d="M204.5 220H208.5V224H204.5V220Z" fill="#E5E7EB"/>
<path d="M-195.5 240H-191.5V244H-195.5V240Z" fill="#E5E7EB"/>
<path d="M-175.5 240H-171.5V244H-175.5V240Z" fill="#E5E7EB"/>
<path d="M-155.5 240H-151.5V244H-155.5V240Z" fill="#E5E7EB"/>
<path d="M-135.5 240H-131.5V244H-135.5V240Z" fill="#E5E7EB"/>
<path d="M-115.5 240H-111.5V244H-115.5V240Z" fill="#E5E7EB"/>
<path d="M-95.5 240H-91.5V244H-95.5V240Z" fill="#E5E7EB"/>
<path d="M-75.5 240H-71.5V244H-75.5V240Z" fill="#E5E7EB"/>
<path d="M-55.5 240H-51.5V244H-55.5V240Z" fill="#E5E7EB"/>
<path d="M-35.5 240H-31.5V244H-35.5V240Z" fill="#E5E7EB"/>
<path d="M-15.5 240H-11.5V244H-15.5V240Z" fill="#E5E7EB"/>
<path d="M4.5 240H8.5V244H4.5V240Z" fill="#E5E7EB"/>
<path d="M24.5 240H28.5V244H24.5V240Z" fill="#E5E7EB"/>
<path d="M44.5 240H48.5V244H44.5V240Z" fill="#E5E7EB"/>
<path d="M64.5 240H68.5V244H64.5V240Z" fill="#E5E7EB"/>
<path d="M84.5 240H88.5V244H84.5V240Z" fill="#E5E7EB"/>
<path d="M104.5 240H108.5V244H104.5V240Z" fill="#E5E7EB"/>
<path d="M124.5 240H128.5V244H124.5V240Z" fill="#E5E7EB"/>
<path d="M144.5 240H148.5V244H144.5V240Z" fill="#E5E7EB"/>
<path d="M164.5 240H168.5V244H164.5V240Z" fill="#E5E7EB"/>
<path d="M184.5 240H188.5V244H184.5V240Z" fill="#E5E7EB"/>
<path d="M204.5 240H208.5V244H204.5V240Z" fill="#E5E7EB"/>
<path d="M-195.5 260H-191.5V264H-195.5V260Z" fill="#E5E7EB"/>
<path d="M-175.5 260H-171.5V264H-175.5V260Z" fill="#E5E7EB"/>
<path d="M-155.5 260H-151.5V264H-155.5V260Z" fill="#E5E7EB"/>
<path d="M-135.5 260H-131.5V264H-135.5V260Z" fill="#E5E7EB"/>
<path d="M-115.5 260H-111.5V264H-115.5V260Z" fill="#E5E7EB"/>
<path d="M-95.5 260H-91.5V264H-95.5V260Z" fill="#E5E7EB"/>
<path d="M-75.5 260H-71.5V264H-75.5V260Z" fill="#E5E7EB"/>
<path d="M-55.5 260H-51.5V264H-55.5V260Z" fill="#E5E7EB"/>
<path d="M-35.5 260H-31.5V264H-35.5V260Z" fill="#E5E7EB"/>
<path d="M-15.5 260H-11.5V264H-15.5V260Z" fill="#E5E7EB"/>
<path d="M4.5 260H8.5V264H4.5V260Z" fill="#E5E7EB"/>
<path d="M24.5 260H28.5V264H24.5V260Z" fill="#E5E7EB"/>
<path d="M44.5 260H48.5V264H44.5V260Z" fill="#E5E7EB"/>
<path d="M64.5 260H68.5V264H64.5V260Z" fill="#E5E7EB"/>
<path d="M84.5 260H88.5V264H84.5V260Z" fill="#E5E7EB"/>
<path d="M104.5 260H108.5V264H104.5V260Z" fill="#E5E7EB"/>
<path d="M124.5 260H128.5V264H124.5V260Z" fill="#E5E7EB"/>
<path d="M144.5 260H148.5V264H144.5V260Z" fill="#E5E7EB"/>
<path d="M164.5 260H168.5V264H164.5V260Z" fill="#E5E7EB"/>
<path d="M184.5 260H188.5V264H184.5V260Z" fill="#E5E7EB"/>
<path d="M204.5 260H208.5V264H204.5V260Z" fill="#E5E7EB"/>
<path d="M-195.5 280H-191.5V284H-195.5V280Z" fill="#E5E7EB"/>
<path d="M-175.5 280H-171.5V284H-175.5V280Z" fill="#E5E7EB"/>
<path d="M-155.5 280H-151.5V284H-155.5V280Z" fill="#E5E7EB"/>
<path d="M-135.5 280H-131.5V284H-135.5V280Z" fill="#E5E7EB"/>
<path d="M-115.5 280H-111.5V284H-115.5V280Z" fill="#E5E7EB"/>
<path d="M-95.5 280H-91.5V284H-95.5V280Z" fill="#E5E7EB"/>
<path d="M-75.5 280H-71.5V284H-75.5V280Z" fill="#E5E7EB"/>
<path d="M-55.5 280H-51.5V284H-55.5V280Z" fill="#E5E7EB"/>
<path d="M-35.5 280H-31.5V284H-35.5V280Z" fill="#E5E7EB"/>
<path d="M-15.5 280H-11.5V284H-15.5V280Z" fill="#E5E7EB"/>
<path d="M4.5 280H8.5V284H4.5V280Z" fill="#E5E7EB"/>
<path d="M24.5 280H28.5V284H24.5V280Z" fill="#E5E7EB"/>
<path d="M44.5 280H48.5V284H44.5V280Z" fill="#E5E7EB"/>
<path d="M64.5 280H68.5V284H64.5V280Z" fill="#E5E7EB"/>
<path d="M84.5 280H88.5V284H84.5V280Z" fill="#E5E7EB"/>
<path d="M104.5 280H108.5V284H104.5V280Z" fill="#E5E7EB"/>
<path d="M124.5 280H128.5V284H124.5V280Z" fill="#E5E7EB"/>
<path d="M144.5 280H148.5V284H144.5V280Z" fill="#E5E7EB"/>
<path d="M164.5 280H168.5V284H164.5V280Z" fill="#E5E7EB"/>
<path d="M184.5 280H188.5V284H184.5V280Z" fill="#E5E7EB"/>
<path d="M204.5 280H208.5V284H204.5V280Z" fill="#E5E7EB"/>
<path d="M-195.5 300H-191.5V304H-195.5V300Z" fill="#E5E7EB"/>
<path d="M-175.5 300H-171.5V304H-175.5V300Z" fill="#E5E7EB"/>
<path d="M-155.5 300H-151.5V304H-155.5V300Z" fill="#E5E7EB"/>
<path d="M-135.5 300H-131.5V304H-135.5V300Z" fill="#E5E7EB"/>
<path d="M-115.5 300H-111.5V304H-115.5V300Z" fill="#E5E7EB"/>
<path d="M-95.5 300H-91.5V304H-95.5V300Z" fill="#E5E7EB"/>
<path d="M-75.5 300H-71.5V304H-75.5V300Z" fill="#E5E7EB"/>
<path d="M-55.5 300H-51.5V304H-55.5V300Z" fill="#E5E7EB"/>
<path d="M-35.5 300H-31.5V304H-35.5V300Z" fill="#E5E7EB"/>
<path d="M-15.5 300H-11.5V304H-15.5V300Z" fill="#E5E7EB"/>
<path d="M4.5 300H8.5V304H4.5V300Z" fill="#E5E7EB"/>
<path d="M24.5 300H28.5V304H24.5V300Z" fill="#E5E7EB"/>
<path d="M44.5 300H48.5V304H44.5V300Z" fill="#E5E7EB"/>
<path d="M64.5 300H68.5V304H64.5V300Z" fill="#E5E7EB"/>
<path d="M84.5 300H88.5V304H84.5V300Z" fill="#E5E7EB"/>
<path d="M104.5 300H108.5V304H104.5V300Z" fill="#E5E7EB"/>
<path d="M124.5 300H128.5V304H124.5V300Z" fill="#E5E7EB"/>
<path d="M144.5 300H148.5V304H144.5V300Z" fill="#E5E7EB"/>
<path d="M164.5 300H168.5V304H164.5V300Z" fill="#E5E7EB"/>
<path d="M184.5 300H188.5V304H184.5V300Z" fill="#E5E7EB"/>
<path d="M204.5 300H208.5V304H204.5V300Z" fill="#E5E7EB"/>
<path d="M-195.5 320H-191.5V324H-195.5V320Z" fill="#E5E7EB"/>
<path d="M-175.5 320H-171.5V324H-175.5V320Z" fill="#E5E7EB"/>
<path d="M-155.5 320H-151.5V324H-155.5V320Z" fill="#E5E7EB"/>
<path d="M-135.5 320H-131.5V324H-135.5V320Z" fill="#E5E7EB"/>
<path d="M-115.5 320H-111.5V324H-115.5V320Z" fill="#E5E7EB"/>
<path d="M-95.5 320H-91.5V324H-95.5V320Z" fill="#E5E7EB"/>
<path d="M-75.5 320H-71.5V324H-75.5V320Z" fill="#E5E7EB"/>
<path d="M-55.5 320H-51.5V324H-55.5V320Z" fill="#E5E7EB"/>
<path d="M-35.5 320H-31.5V324H-35.5V320Z" fill="#E5E7EB"/>
<path d="M-15.5 320H-11.5V324H-15.5V320Z" fill="#E5E7EB"/>
<path d="M4.5 320H8.5V324H4.5V320Z" fill="#E5E7EB"/>
<path d="M24.5 320H28.5V324H24.5V320Z" fill="#E5E7EB"/>
<path d="M44.5 320H48.5V324H44.5V320Z" fill="#E5E7EB"/>
<path d="M64.5 320H68.5V324H64.5V320Z" fill="#E5E7EB"/>
<path d="M84.5 320H88.5V324H84.5V320Z" fill="#E5E7EB"/>
<path d="M104.5 320H108.5V324H104.5V320Z" fill="#E5E7EB"/>
<path d="M124.5 320H128.5V324H124.5V320Z" fill="#E5E7EB"/>
<path d="M144.5 320H148.5V324H144.5V320Z" fill="#E5E7EB"/>
<path d="M164.5 320H168.5V324H164.5V320Z" fill="#E5E7EB"/>
<path d="M184.5 320H188.5V324H184.5V320Z" fill="#E5E7EB"/>
<path d="M204.5 320H208.5V324H204.5V320Z" fill="#E5E7EB"/>
<path d="M-195.5 340H-191.5V344H-195.5V340Z" fill="#E5E7EB"/>
<path d="M-175.5 340H-171.5V344H-175.5V340Z" fill="#E5E7EB"/>
<path d="M-155.5 340H-151.5V344H-155.5V340Z" fill="#E5E7EB"/>
<path d="M-135.5 340H-131.5V344H-135.5V340Z" fill="#E5E7EB"/>
<path d="M-115.5 340H-111.5V344H-115.5V340Z" fill="#E5E7EB"/>
<path d="M-95.5 340H-91.5V344H-95.5V340Z" fill="#E5E7EB"/>
<path d="M-75.5 340H-71.5V344H-75.5V340Z" fill="#E5E7EB"/>
<path d="M-55.5 340H-51.5V344H-55.5V340Z" fill="#E5E7EB"/>
<path d="M-35.5 340H-31.5V344H-35.5V340Z" fill="#E5E7EB"/>
<path d="M-15.5 340H-11.5V344H-15.5V340Z" fill="#E5E7EB"/>
<path d="M4.5 340H8.5V344H4.5V340Z" fill="#E5E7EB"/>
<path d="M24.5 340H28.5V344H24.5V340Z" fill="#E5E7EB"/>
<path d="M44.5 340H48.5V344H44.5V340Z" fill="#E5E7EB"/>
<path d="M64.5 340H68.5V344H64.5V340Z" fill="#E5E7EB"/>
<path d="M84.5 340H88.5V344H84.5V340Z" fill="#E5E7EB"/>
<path d="M104.5 340H108.5V344H104.5V340Z" fill="#E5E7EB"/>
<path d="M124.5 340H128.5V344H124.5V340Z" fill="#E5E7EB"/>
<path d="M144.5 340H148.5V344H144.5V340Z" fill="#E5E7EB"/>
<path d="M164.5 340H168.5V344H164.5V340Z" fill="#E5E7EB"/>
<path d="M184.5 340H188.5V344H184.5V340Z" fill="#E5E7EB"/>
<path d="M204.5 340H208.5V344H204.5V340Z" fill="#E5E7EB"/>
<path d="M-195.5 360H-191.5V364H-195.5V360Z" fill="#E5E7EB"/>
<path d="M-175.5 360H-171.5V364H-175.5V360Z" fill="#E5E7EB"/>
<path d="M-155.5 360H-151.5V364H-155.5V360Z" fill="#E5E7EB"/>
<path d="M-135.5 360H-131.5V364H-135.5V360Z" fill="#E5E7EB"/>
<path d="M-115.5 360H-111.5V364H-115.5V360Z" fill="#E5E7EB"/>
<path d="M-95.5 360H-91.5V364H-95.5V360Z" fill="#E5E7EB"/>
<path d="M-75.5 360H-71.5V364H-75.5V360Z" fill="#E5E7EB"/>
<path d="M-55.5 360H-51.5V364H-55.5V360Z" fill="#E5E7EB"/>
<path d="M-35.5 360H-31.5V364H-35.5V360Z" fill="#E5E7EB"/>
<path d="M-15.5 360H-11.5V364H-15.5V360Z" fill="#E5E7EB"/>
<path d="M4.5 360H8.5V364H4.5V360Z" fill="#E5E7EB"/>
<path d="M24.5 360H28.5V364H24.5V360Z" fill="#E5E7EB"/>
<path d="M44.5 360H48.5V364H44.5V360Z" fill="#E5E7EB"/>
<path d="M64.5 360H68.5V364H64.5V360Z" fill="#E5E7EB"/>
<path d="M84.5 360H88.5V364H84.5V360Z" fill="#E5E7EB"/>
<path d="M104.5 360H108.5V364H104.5V360Z" fill="#E5E7EB"/>
<path d="M124.5 360H128.5V364H124.5V360Z" fill="#E5E7EB"/>
<path d="M144.5 360H148.5V364H144.5V360Z" fill="#E5E7EB"/>
<path d="M164.5 360H168.5V364H164.5V360Z" fill="#E5E7EB"/>
<path d="M184.5 360H188.5V364H184.5V360Z" fill="#E5E7EB"/>
<path d="M204.5 360H208.5V364H204.5V360Z" fill="#E5E7EB"/>
<path d="M-195.5 380H-191.5V384H-195.5V380Z" fill="#E5E7EB"/>
<path d="M-175.5 380H-171.5V384H-175.5V380Z" fill="#E5E7EB"/>
<path d="M-155.5 380H-151.5V384H-155.5V380Z" fill="#E5E7EB"/>
<path d="M-135.5 380H-131.5V384H-135.5V380Z" fill="#E5E7EB"/>
<path d="M-115.5 380H-111.5V384H-115.5V380Z" fill="#E5E7EB"/>
<path d="M-95.5 380H-91.5V384H-95.5V380Z" fill="#E5E7EB"/>
<path d="M-75.5 380H-71.5V384H-75.5V380Z" fill="#E5E7EB"/>
<path d="M-55.5 380H-51.5V384H-55.5V380Z" fill="#E5E7EB"/>
<path d="M-35.5 380H-31.5V384H-35.5V380Z" fill="#E5E7EB"/>
<path d="M-15.5 380H-11.5V384H-15.5V380Z" fill="#E5E7EB"/>
<path d="M4.5 380H8.5V384H4.5V380Z" fill="#E5E7EB"/>
<path d="M24.5 380H28.5V384H24.5V380Z" fill="#E5E7EB"/>
<path d="M44.5 380H48.5V384H44.5V380Z" fill="#E5E7EB"/>
<path d="M64.5 380H68.5V384H64.5V380Z" fill="#E5E7EB"/>
<path d="M84.5 380H88.5V384H84.5V380Z" fill="#E5E7EB"/>
<path d="M104.5 380H108.5V384H104.5V380Z" fill="#E5E7EB"/>
<path d="M124.5 380H128.5V384H124.5V380Z" fill="#E5E7EB"/>
<path d="M144.5 380H148.5V384H144.5V380Z" fill="#E5E7EB"/>
<path d="M164.5 380H168.5V384H164.5V380Z" fill="#E5E7EB"/>
<path d="M184.5 380H188.5V384H184.5V380Z" fill="#E5E7EB"/>
<path d="M204.5 380H208.5V384H204.5V380Z" fill="#E5E7EB"/>
<path d="M-195.5 400H-191.5V404H-195.5V400Z" fill="#E5E7EB"/>
<path d="M-175.5 400H-171.5V404H-175.5V400Z" fill="#E5E7EB"/>
<path d="M-155.5 400H-151.5V404H-155.5V400Z" fill="#E5E7EB"/>
<path d="M-135.5 400H-131.5V404H-135.5V400Z" fill="#E5E7EB"/>
<path d="M-115.5 400H-111.5V404H-115.5V400Z" fill="#E5E7EB"/>
<path d="M-95.5 400H-91.5V404H-95.5V400Z" fill="#E5E7EB"/>
<path d="M-75.5 400H-71.5V404H-75.5V400Z" fill="#E5E7EB"/>
<path d="M-55.5 400H-51.5V404H-55.5V400Z" fill="#E5E7EB"/>
<path d="M-35.5 400H-31.5V404H-35.5V400Z" fill="#E5E7EB"/>
<path d="M-15.5 400H-11.5V404H-15.5V400Z" fill="#E5E7EB"/>
<path d="M4.5 400H8.5V404H4.5V400Z" fill="#E5E7EB"/>
<path d="M24.5 400H28.5V404H24.5V400Z" fill="#E5E7EB"/>
<path d="M44.5 400H48.5V404H44.5V400Z" fill="#E5E7EB"/>
<path d="M64.5 400H68.5V404H64.5V400Z" fill="#E5E7EB"/>
<path d="M84.5 400H88.5V404H84.5V400Z" fill="#E5E7EB"/>
<path d="M104.5 400H108.5V404H104.5V400Z" fill="#E5E7EB"/>
<path d="M124.5 400H128.5V404H124.5V400Z" fill="#E5E7EB"/>
<path d="M144.5 400H148.5V404H144.5V400Z" fill="#E5E7EB"/>
<path d="M164.5 400H168.5V404H164.5V400Z" fill="#E5E7EB"/>
<path d="M184.5 400H188.5V404H184.5V400Z" fill="#E5E7EB"/>
<path d="M204.5 400H208.5V404H204.5V400Z" fill="#E5E7EB"/>
<path d="M224.5 0H228.5V4H224.5V0Z" fill="#E5E7EB"/>
<path d="M244.5 0H248.5V4H244.5V0Z" fill="#E5E7EB"/>
<path d="M264.5 0H268.5V4H264.5V0Z" fill="#E5E7EB"/>
<path d="M284.5 0H288.5V4H284.5V0Z" fill="#E5E7EB"/>
<path d="M304.5 0H308.5V4H304.5V0Z" fill="#E5E7EB"/>
<path d="M324.5 0H328.5V4H324.5V0Z" fill="#E5E7EB"/>
<path d="M344.5 0H348.5V4H344.5V0Z" fill="#E5E7EB"/>
<path d="M364.5 0H368.5V4H364.5V0Z" fill="#E5E7EB"/>
<path d="M384.5 0H388.5V4H384.5V0Z" fill="#E5E7EB"/>
<path d="M404.5 0H408.5V4H404.5V0Z" fill="#E5E7EB"/>
<path d="M424.5 0H428.5V4H424.5V0Z" fill="#E5E7EB"/>
<path d="M444.5 0H448.5V4H444.5V0Z" fill="#E5E7EB"/>
<path d="M464.5 0H468.5V4H464.5V0Z" fill="#E5E7EB"/>
<path d="M484.5 0H488.5V4H484.5V0Z" fill="#E5E7EB"/>
<path d="M504.5 0H508.5V4H504.5V0Z" fill="#E5E7EB"/>
<path d="M524.5 0H528.5V4H524.5V0Z" fill="#E5E7EB"/>
<path d="M544.5 0H548.5V4H544.5V0Z" fill="#E5E7EB"/>
<path d="M564.5 0H568.5V4H564.5V0Z" fill="#E5E7EB"/>
<path d="M584.5 0H588.5V4H584.5V0Z" fill="#E5E7EB"/>
<path d="M604.5 0H608.5V4H604.5V0Z" fill="#E5E7EB"/>
<path d="M624.5 0H628.5V4H624.5V0Z" fill="#E5E7EB"/>
<path d="M224.5 20H228.5V24H224.5V20Z" fill="#E5E7EB"/>
<path d="M244.5 20H248.5V24H244.5V20Z" fill="#E5E7EB"/>
<path d="M264.5 20H268.5V24H264.5V20Z" fill="#E5E7EB"/>
<path d="M284.5 20H288.5V24H284.5V20Z" fill="#E5E7EB"/>
<path d="M304.5 20H308.5V24H304.5V20Z" fill="#E5E7EB"/>
<path d="M324.5 20H328.5V24H324.5V20Z" fill="#E5E7EB"/>
<path d="M344.5 20H348.5V24H344.5V20Z" fill="#E5E7EB"/>
<path d="M364.5 20H368.5V24H364.5V20Z" fill="#E5E7EB"/>
<path d="M384.5 20H388.5V24H384.5V20Z" fill="#E5E7EB"/>
<path d="M404.5 20H408.5V24H404.5V20Z" fill="#E5E7EB"/>
<path d="M424.5 20H428.5V24H424.5V20Z" fill="#E5E7EB"/>
<path d="M444.5 20H448.5V24H444.5V20Z" fill="#E5E7EB"/>
<path d="M464.5 20H468.5V24H464.5V20Z" fill="#E5E7EB"/>
<path d="M484.5 20H488.5V24H484.5V20Z" fill="#E5E7EB"/>
<path d="M504.5 20H508.5V24H504.5V20Z" fill="#E5E7EB"/>
<path d="M524.5 20H528.5V24H524.5V20Z" fill="#E5E7EB"/>
<path d="M544.5 20H548.5V24H544.5V20Z" fill="#E5E7EB"/>
<path d="M564.5 20H568.5V24H564.5V20Z" fill="#E5E7EB"/>
<path d="M584.5 20H588.5V24H584.5V20Z" fill="#E5E7EB"/>
<path d="M604.5 20H608.5V24H604.5V20Z" fill="#E5E7EB"/>
<path d="M624.5 20H628.5V24H624.5V20Z" fill="#E5E7EB"/>
<path d="M224.5 40H228.5V44H224.5V40Z" fill="#E5E7EB"/>
<path d="M244.5 40H248.5V44H244.5V40Z" fill="#E5E7EB"/>
<path d="M264.5 40H268.5V44H264.5V40Z" fill="#E5E7EB"/>
<path d="M284.5 40H288.5V44H284.5V40Z" fill="#E5E7EB"/>
<path d="M304.5 40H308.5V44H304.5V40Z" fill="#E5E7EB"/>
<path d="M324.5 40H328.5V44H324.5V40Z" fill="#E5E7EB"/>
<path d="M344.5 40H348.5V44H344.5V40Z" fill="#E5E7EB"/>
<path d="M364.5 40H368.5V44H364.5V40Z" fill="#E5E7EB"/>
<path d="M384.5 40H388.5V44H384.5V40Z" fill="#E5E7EB"/>
<path d="M404.5 40H408.5V44H404.5V40Z" fill="#E5E7EB"/>
<path d="M424.5 40H428.5V44H424.5V40Z" fill="#E5E7EB"/>
<path d="M444.5 40H448.5V44H444.5V40Z" fill="#E5E7EB"/>
<path d="M464.5 40H468.5V44H464.5V40Z" fill="#E5E7EB"/>
<path d="M484.5 40H488.5V44H484.5V40Z" fill="#E5E7EB"/>
<path d="M504.5 40H508.5V44H504.5V40Z" fill="#E5E7EB"/>
<path d="M524.5 40H528.5V44H524.5V40Z" fill="#E5E7EB"/>
<path d="M544.5 40H548.5V44H544.5V40Z" fill="#E5E7EB"/>
<path d="M564.5 40H568.5V44H564.5V40Z" fill="#E5E7EB"/>
<path d="M584.5 40H588.5V44H584.5V40Z" fill="#E5E7EB"/>
<path d="M604.5 40H608.5V44H604.5V40Z" fill="#E5E7EB"/>
<path d="M624.5 40H628.5V44H624.5V40Z" fill="#E5E7EB"/>
<path d="M224.5 60H228.5V64H224.5V60Z" fill="#E5E7EB"/>
<path d="M244.5 60H248.5V64H244.5V60Z" fill="#E5E7EB"/>
<path d="M264.5 60H268.5V64H264.5V60Z" fill="#E5E7EB"/>
<path d="M284.5 60H288.5V64H284.5V60Z" fill="#E5E7EB"/>
<path d="M304.5 60H308.5V64H304.5V60Z" fill="#E5E7EB"/>
<path d="M324.5 60H328.5V64H324.5V60Z" fill="#E5E7EB"/>
<path d="M344.5 60H348.5V64H344.5V60Z" fill="#E5E7EB"/>
<path d="M364.5 60H368.5V64H364.5V60Z" fill="#E5E7EB"/>
<path d="M384.5 60H388.5V64H384.5V60Z" fill="#E5E7EB"/>
<path d="M404.5 60H408.5V64H404.5V60Z" fill="#E5E7EB"/>
<path d="M424.5 60H428.5V64H424.5V60Z" fill="#E5E7EB"/>
<path d="M444.5 60H448.5V64H444.5V60Z" fill="#E5E7EB"/>
<path d="M464.5 60H468.5V64H464.5V60Z" fill="#E5E7EB"/>
<path d="M484.5 60H488.5V64H484.5V60Z" fill="#E5E7EB"/>
<path d="M504.5 60H508.5V64H504.5V60Z" fill="#E5E7EB"/>
<path d="M524.5 60H528.5V64H524.5V60Z" fill="#E5E7EB"/>
<path d="M544.5 60H548.5V64H544.5V60Z" fill="#E5E7EB"/>
<path d="M564.5 60H568.5V64H564.5V60Z" fill="#E5E7EB"/>
<path d="M584.5 60H588.5V64H584.5V60Z" fill="#E5E7EB"/>
<path d="M604.5 60H608.5V64H604.5V60Z" fill="#E5E7EB"/>
<path d="M624.5 60H628.5V64H624.5V60Z" fill="#E5E7EB"/>
<path d="M224.5 80H228.5V84H224.5V80Z" fill="#E5E7EB"/>
<path d="M244.5 80H248.5V84H244.5V80Z" fill="#E5E7EB"/>
<path d="M264.5 80H268.5V84H264.5V80Z" fill="#E5E7EB"/>
<path d="M284.5 80H288.5V84H284.5V80Z" fill="#E5E7EB"/>
<path d="M304.5 80H308.5V84H304.5V80Z" fill="#E5E7EB"/>
<path d="M324.5 80H328.5V84H324.5V80Z" fill="#E5E7EB"/>
<path d="M344.5 80H348.5V84H344.5V80Z" fill="#E5E7EB"/>
<path d="M364.5 80H368.5V84H364.5V80Z" fill="#E5E7EB"/>
<path d="M384.5 80H388.5V84H384.5V80Z" fill="#E5E7EB"/>
<path d="M404.5 80H408.5V84H404.5V80Z" fill="#E5E7EB"/>
<path d="M424.5 80H428.5V84H424.5V80Z" fill="#E5E7EB"/>
<path d="M444.5 80H448.5V84H444.5V80Z" fill="#E5E7EB"/>
<path d="M464.5 80H468.5V84H464.5V80Z" fill="#E5E7EB"/>
<path d="M484.5 80H488.5V84H484.5V80Z" fill="#E5E7EB"/>
<path d="M504.5 80H508.5V84H504.5V80Z" fill="#E5E7EB"/>
<path d="M524.5 80H528.5V84H524.5V80Z" fill="#E5E7EB"/>
<path d="M544.5 80H548.5V84H544.5V80Z" fill="#E5E7EB"/>
<path d="M564.5 80H568.5V84H564.5V80Z" fill="#E5E7EB"/>
<path d="M584.5 80H588.5V84H584.5V80Z" fill="#E5E7EB"/>
<path d="M604.5 80H608.5V84H604.5V80Z" fill="#E5E7EB"/>
<path d="M624.5 80H628.5V84H624.5V80Z" fill="#E5E7EB"/>
<path d="M224.5 100H228.5V104H224.5V100Z" fill="#E5E7EB"/>
<path d="M244.5 100H248.5V104H244.5V100Z" fill="#E5E7EB"/>
<path d="M264.5 100H268.5V104H264.5V100Z" fill="#E5E7EB"/>
<path d="M284.5 100H288.5V104H284.5V100Z" fill="#E5E7EB"/>
<path d="M304.5 100H308.5V104H304.5V100Z" fill="#E5E7EB"/>
<path d="M324.5 100H328.5V104H324.5V100Z" fill="#E5E7EB"/>
<path d="M344.5 100H348.5V104H344.5V100Z" fill="#E5E7EB"/>
<path d="M364.5 100H368.5V104H364.5V100Z" fill="#E5E7EB"/>
<path d="M384.5 100H388.5V104H384.5V100Z" fill="#E5E7EB"/>
<path d="M404.5 100H408.5V104H404.5V100Z" fill="#E5E7EB"/>
<path d="M424.5 100H428.5V104H424.5V100Z" fill="#E5E7EB"/>
<path d="M444.5 100H448.5V104H444.5V100Z" fill="#E5E7EB"/>
<path d="M464.5 100H468.5V104H464.5V100Z" fill="#E5E7EB"/>
<path d="M484.5 100H488.5V104H484.5V100Z" fill="#E5E7EB"/>
<path d="M504.5 100H508.5V104H504.5V100Z" fill="#E5E7EB"/>
<path d="M524.5 100H528.5V104H524.5V100Z" fill="#E5E7EB"/>
<path d="M544.5 100H548.5V104H544.5V100Z" fill="#E5E7EB"/>
<path d="M564.5 100H568.5V104H564.5V100Z" fill="#E5E7EB"/>
<path d="M584.5 100H588.5V104H584.5V100Z" fill="#E5E7EB"/>
<path d="M604.5 100H608.5V104H604.5V100Z" fill="#E5E7EB"/>
<path d="M624.5 100H628.5V104H624.5V100Z" fill="#E5E7EB"/>
<path d="M224.5 120H228.5V124H224.5V120Z" fill="#E5E7EB"/>
<path d="M244.5 120H248.5V124H244.5V120Z" fill="#E5E7EB"/>
<path d="M264.5 120H268.5V124H264.5V120Z" fill="#E5E7EB"/>
<path d="M284.5 120H288.5V124H284.5V120Z" fill="#E5E7EB"/>
<path d="M304.5 120H308.5V124H304.5V120Z" fill="#E5E7EB"/>
<path d="M324.5 120H328.5V124H324.5V120Z" fill="#E5E7EB"/>
<path d="M344.5 120H348.5V124H344.5V120Z" fill="#E5E7EB"/>
<path d="M364.5 120H368.5V124H364.5V120Z" fill="#E5E7EB"/>
<path d="M384.5 120H388.5V124H384.5V120Z" fill="#E5E7EB"/>
<path d="M404.5 120H408.5V124H404.5V120Z" fill="#E5E7EB"/>
<path d="M424.5 120H428.5V124H424.5V120Z" fill="#E5E7EB"/>
<path d="M444.5 120H448.5V124H444.5V120Z" fill="#E5E7EB"/>
<path d="M464.5 120H468.5V124H464.5V120Z" fill="#E5E7EB"/>
<path d="M484.5 120H488.5V124H484.5V120Z" fill="#E5E7EB"/>
<path d="M504.5 120H508.5V124H504.5V120Z" fill="#E5E7EB"/>
<path d="M524.5 120H528.5V124H524.5V120Z" fill="#E5E7EB"/>
<path d="M544.5 120H548.5V124H544.5V120Z" fill="#E5E7EB"/>
<path d="M564.5 120H568.5V124H564.5V120Z" fill="#E5E7EB"/>
<path d="M584.5 120H588.5V124H584.5V120Z" fill="#E5E7EB"/>
<path d="M604.5 120H608.5V124H604.5V120Z" fill="#E5E7EB"/>
<path d="M624.5 120H628.5V124H624.5V120Z" fill="#E5E7EB"/>
<path d="M224.5 140H228.5V144H224.5V140Z" fill="#E5E7EB"/>
<path d="M244.5 140H248.5V144H244.5V140Z" fill="#E5E7EB"/>
<path d="M264.5 140H268.5V144H264.5V140Z" fill="#E5E7EB"/>
<path d="M284.5 140H288.5V144H284.5V140Z" fill="#E5E7EB"/>
<path d="M304.5 140H308.5V144H304.5V140Z" fill="#E5E7EB"/>
<path d="M324.5 140H328.5V144H324.5V140Z" fill="#E5E7EB"/>
<path d="M344.5 140H348.5V144H344.5V140Z" fill="#E5E7EB"/>
<path d="M364.5 140H368.5V144H364.5V140Z" fill="#E5E7EB"/>
<path d="M384.5 140H388.5V144H384.5V140Z" fill="#E5E7EB"/>
<path d="M404.5 140H408.5V144H404.5V140Z" fill="#E5E7EB"/>
<path d="M424.5 140H428.5V144H424.5V140Z" fill="#E5E7EB"/>
<path d="M444.5 140H448.5V144H444.5V140Z" fill="#E5E7EB"/>
<path d="M464.5 140H468.5V144H464.5V140Z" fill="#E5E7EB"/>
<path d="M484.5 140H488.5V144H484.5V140Z" fill="#E5E7EB"/>
<path d="M504.5 140H508.5V144H504.5V140Z" fill="#E5E7EB"/>
<path d="M524.5 140H528.5V144H524.5V140Z" fill="#E5E7EB"/>
<path d="M544.5 140H548.5V144H544.5V140Z" fill="#E5E7EB"/>
<path d="M564.5 140H568.5V144H564.5V140Z" fill="#E5E7EB"/>
<path d="M584.5 140H588.5V144H584.5V140Z" fill="#E5E7EB"/>
<path d="M604.5 140H608.5V144H604.5V140Z" fill="#E5E7EB"/>
<path d="M624.5 140H628.5V144H624.5V140Z" fill="#E5E7EB"/>
<path d="M224.5 160H228.5V164H224.5V160Z" fill="#E5E7EB"/>
<path d="M244.5 160H248.5V164H244.5V160Z" fill="#E5E7EB"/>
<path d="M264.5 160H268.5V164H264.5V160Z" fill="#E5E7EB"/>
<path d="M284.5 160H288.5V164H284.5V160Z" fill="#E5E7EB"/>
<path d="M304.5 160H308.5V164H304.5V160Z" fill="#E5E7EB"/>
<path d="M324.5 160H328.5V164H324.5V160Z" fill="#E5E7EB"/>
<path d="M344.5 160H348.5V164H344.5V160Z" fill="#E5E7EB"/>
<path d="M364.5 160H368.5V164H364.5V160Z" fill="#E5E7EB"/>
<path d="M384.5 160H388.5V164H384.5V160Z" fill="#E5E7EB"/>
<path d="M404.5 160H408.5V164H404.5V160Z" fill="#E5E7EB"/>
<path d="M424.5 160H428.5V164H424.5V160Z" fill="#E5E7EB"/>
<path d="M444.5 160H448.5V164H444.5V160Z" fill="#E5E7EB"/>
<path d="M464.5 160H468.5V164H464.5V160Z" fill="#E5E7EB"/>
<path d="M484.5 160H488.5V164H484.5V160Z" fill="#E5E7EB"/>
<path d="M504.5 160H508.5V164H504.5V160Z" fill="#E5E7EB"/>
<path d="M524.5 160H528.5V164H524.5V160Z" fill="#E5E7EB"/>
<path d="M544.5 160H548.5V164H544.5V160Z" fill="#E5E7EB"/>
<path d="M564.5 160H568.5V164H564.5V160Z" fill="#E5E7EB"/>
<path d="M584.5 160H588.5V164H584.5V160Z" fill="#E5E7EB"/>
<path d="M604.5 160H608.5V164H604.5V160Z" fill="#E5E7EB"/>
<path d="M624.5 160H628.5V164H624.5V160Z" fill="#E5E7EB"/>
<path d="M224.5 180H228.5V184H224.5V180Z" fill="#E5E7EB"/>
<path d="M244.5 180H248.5V184H244.5V180Z" fill="#E5E7EB"/>
<path d="M264.5 180H268.5V184H264.5V180Z" fill="#E5E7EB"/>
<path d="M284.5 180H288.5V184H284.5V180Z" fill="#E5E7EB"/>
<path d="M304.5 180H308.5V184H304.5V180Z" fill="#E5E7EB"/>
<path d="M324.5 180H328.5V184H324.5V180Z" fill="#E5E7EB"/>
<path d="M344.5 180H348.5V184H344.5V180Z" fill="#E5E7EB"/>
<path d="M364.5 180H368.5V184H364.5V180Z" fill="#E5E7EB"/>
<path d="M384.5 180H388.5V184H384.5V180Z" fill="#E5E7EB"/>
<path d="M404.5 180H408.5V184H404.5V180Z" fill="#E5E7EB"/>
<path d="M424.5 180H428.5V184H424.5V180Z" fill="#E5E7EB"/>
<path d="M444.5 180H448.5V184H444.5V180Z" fill="#E5E7EB"/>
<path d="M464.5 180H468.5V184H464.5V180Z" fill="#E5E7EB"/>
<path d="M484.5 180H488.5V184H484.5V180Z" fill="#E5E7EB"/>
<path d="M504.5 180H508.5V184H504.5V180Z" fill="#E5E7EB"/>
<path d="M524.5 180H528.5V184H524.5V180Z" fill="#E5E7EB"/>
<path d="M544.5 180H548.5V184H544.5V180Z" fill="#E5E7EB"/>
<path d="M564.5 180H568.5V184H564.5V180Z" fill="#E5E7EB"/>
<path d="M584.5 180H588.5V184H584.5V180Z" fill="#E5E7EB"/>
<path d="M604.5 180H608.5V184H604.5V180Z" fill="#E5E7EB"/>
<path d="M624.5 180H628.5V184H624.5V180Z" fill="#E5E7EB"/>
<path d="M224.5 200H228.5V204H224.5V200Z" fill="#E5E7EB"/>
<path d="M244.5 200H248.5V204H244.5V200Z" fill="#E5E7EB"/>
<path d="M264.5 200H268.5V204H264.5V200Z" fill="#E5E7EB"/>
<path d="M284.5 200H288.5V204H284.5V200Z" fill="#E5E7EB"/>
<path d="M304.5 200H308.5V204H304.5V200Z" fill="#E5E7EB"/>
<path d="M324.5 200H328.5V204H324.5V200Z" fill="#E5E7EB"/>
<path d="M344.5 200H348.5V204H344.5V200Z" fill="#E5E7EB"/>
<path d="M364.5 200H368.5V204H364.5V200Z" fill="#E5E7EB"/>
<path d="M384.5 200H388.5V204H384.5V200Z" fill="#E5E7EB"/>
<path d="M404.5 200H408.5V204H404.5V200Z" fill="#E5E7EB"/>
<path d="M424.5 200H428.5V204H424.5V200Z" fill="#E5E7EB"/>
<path d="M444.5 200H448.5V204H444.5V200Z" fill="#E5E7EB"/>
<path d="M464.5 200H468.5V204H464.5V200Z" fill="#E5E7EB"/>
<path d="M484.5 200H488.5V204H484.5V200Z" fill="#E5E7EB"/>
<path d="M504.5 200H508.5V204H504.5V200Z" fill="#E5E7EB"/>
<path d="M524.5 200H528.5V204H524.5V200Z" fill="#E5E7EB"/>
<path d="M544.5 200H548.5V204H544.5V200Z" fill="#E5E7EB"/>
<path d="M564.5 200H568.5V204H564.5V200Z" fill="#E5E7EB"/>
<path d="M584.5 200H588.5V204H584.5V200Z" fill="#E5E7EB"/>
<path d="M604.5 200H608.5V204H604.5V200Z" fill="#E5E7EB"/>
<path d="M624.5 200H628.5V204H624.5V200Z" fill="#E5E7EB"/>
<path d="M224.5 220H228.5V224H224.5V220Z" fill="#E5E7EB"/>
<path d="M244.5 220H248.5V224H244.5V220Z" fill="#E5E7EB"/>
<path d="M264.5 220H268.5V224H264.5V220Z" fill="#E5E7EB"/>
<path d="M284.5 220H288.5V224H284.5V220Z" fill="#E5E7EB"/>
<path d="M304.5 220H308.5V224H304.5V220Z" fill="#E5E7EB"/>
<path d="M324.5 220H328.5V224H324.5V220Z" fill="#E5E7EB"/>
<path d="M344.5 220H348.5V224H344.5V220Z" fill="#E5E7EB"/>
<path d="M364.5 220H368.5V224H364.5V220Z" fill="#E5E7EB"/>
<path d="M384.5 220H388.5V224H384.5V220Z" fill="#E5E7EB"/>
<path d="M404.5 220H408.5V224H404.5V220Z" fill="#E5E7EB"/>
<path d="M424.5 220H428.5V224H424.5V220Z" fill="#E5E7EB"/>
<path d="M444.5 220H448.5V224H444.5V220Z" fill="#E5E7EB"/>
<path d="M464.5 220H468.5V224H464.5V220Z" fill="#E5E7EB"/>
<path d="M484.5 220H488.5V224H484.5V220Z" fill="#E5E7EB"/>
<path d="M504.5 220H508.5V224H504.5V220Z" fill="#E5E7EB"/>
<path d="M524.5 220H528.5V224H524.5V220Z" fill="#E5E7EB"/>
<path d="M544.5 220H548.5V224H544.5V220Z" fill="#E5E7EB"/>
<path d="M564.5 220H568.5V224H564.5V220Z" fill="#E5E7EB"/>
<path d="M584.5 220H588.5V224H584.5V220Z" fill="#E5E7EB"/>
<path d="M604.5 220H608.5V224H604.5V220Z" fill="#E5E7EB"/>
<path d="M624.5 220H628.5V224H624.5V220Z" fill="#E5E7EB"/>
<path d="M224.5 240H228.5V244H224.5V240Z" fill="#E5E7EB"/>
<path d="M244.5 240H248.5V244H244.5V240Z" fill="#E5E7EB"/>
<path d="M264.5 240H268.5V244H264.5V240Z" fill="#E5E7EB"/>
<path d="M284.5 240H288.5V244H284.5V240Z" fill="#E5E7EB"/>
<path d="M304.5 240H308.5V244H304.5V240Z" fill="#E5E7EB"/>
<path d="M324.5 240H328.5V244H324.5V240Z" fill="#E5E7EB"/>
<path d="M344.5 240H348.5V244H344.5V240Z" fill="#E5E7EB"/>
<path d="M364.5 240H368.5V244H364.5V240Z" fill="#E5E7EB"/>
<path d="M384.5 240H388.5V244H384.5V240Z" fill="#E5E7EB"/>
<path d="M404.5 240H408.5V244H404.5V240Z" fill="#E5E7EB"/>
<path d="M424.5 240H428.5V244H424.5V240Z" fill="#E5E7EB"/>
<path d="M444.5 240H448.5V244H444.5V240Z" fill="#E5E7EB"/>
<path d="M464.5 240H468.5V244H464.5V240Z" fill="#E5E7EB"/>
<path d="M484.5 240H488.5V244H484.5V240Z" fill="#E5E7EB"/>
<path d="M504.5 240H508.5V244H504.5V240Z" fill="#E5E7EB"/>
<path d="M524.5 240H528.5V244H524.5V240Z" fill="#E5E7EB"/>
<path d="M544.5 240H548.5V244H544.5V240Z" fill="#E5E7EB"/>
<path d="M564.5 240H568.5V244H564.5V240Z" fill="#E5E7EB"/>
<path d="M584.5 240H588.5V244H584.5V240Z" fill="#E5E7EB"/>
<path d="M604.5 240H608.5V244H604.5V240Z" fill="#E5E7EB"/>
<path d="M624.5 240H628.5V244H624.5V240Z" fill="#E5E7EB"/>
<path d="M224.5 260H228.5V264H224.5V260Z" fill="#E5E7EB"/>
<path d="M244.5 260H248.5V264H244.5V260Z" fill="#E5E7EB"/>
<path d="M264.5 260H268.5V264H264.5V260Z" fill="#E5E7EB"/>
<path d="M284.5 260H288.5V264H284.5V260Z" fill="#E5E7EB"/>
<path d="M304.5 260H308.5V264H304.5V260Z" fill="#E5E7EB"/>
<path d="M324.5 260H328.5V264H324.5V260Z" fill="#E5E7EB"/>
<path d="M344.5 260H348.5V264H344.5V260Z" fill="#E5E7EB"/>
<path d="M364.5 260H368.5V264H364.5V260Z" fill="#E5E7EB"/>
<path d="M384.5 260H388.5V264H384.5V260Z" fill="#E5E7EB"/>
<path d="M404.5 260H408.5V264H404.5V260Z" fill="#E5E7EB"/>
<path d="M424.5 260H428.5V264H424.5V260Z" fill="#E5E7EB"/>
<path d="M444.5 260H448.5V264H444.5V260Z" fill="#E5E7EB"/>
<path d="M464.5 260H468.5V264H464.5V260Z" fill="#E5E7EB"/>
<path d="M484.5 260H488.5V264H484.5V260Z" fill="#E5E7EB"/>
<path d="M504.5 260H508.5V264H504.5V260Z" fill="#E5E7EB"/>
<path d="M524.5 260H528.5V264H524.5V260Z" fill="#E5E7EB"/>
<path d="M544.5 260H548.5V264H544.5V260Z" fill="#E5E7EB"/>
<path d="M564.5 260H568.5V264H564.5V260Z" fill="#E5E7EB"/>
<path d="M584.5 260H588.5V264H584.5V260Z" fill="#E5E7EB"/>
<path d="M604.5 260H608.5V264H604.5V260Z" fill="#E5E7EB"/>
<path d="M624.5 260H628.5V264H624.5V260Z" fill="#E5E7EB"/>
<path d="M224.5 280H228.5V284H224.5V280Z" fill="#E5E7EB"/>
<path d="M244.5 280H248.5V284H244.5V280Z" fill="#E5E7EB"/>
<path d="M264.5 280H268.5V284H264.5V280Z" fill="#E5E7EB"/>
<path d="M284.5 280H288.5V284H284.5V280Z" fill="#E5E7EB"/>
<path d="M304.5 280H308.5V284H304.5V280Z" fill="#E5E7EB"/>
<path d="M324.5 280H328.5V284H324.5V280Z" fill="#E5E7EB"/>
<path d="M344.5 280H348.5V284H344.5V280Z" fill="#E5E7EB"/>
<path d="M364.5 280H368.5V284H364.5V280Z" fill="#E5E7EB"/>
<path d="M384.5 280H388.5V284H384.5V280Z" fill="#E5E7EB"/>
<path d="M404.5 280H408.5V284H404.5V280Z" fill="#E5E7EB"/>
<path d="M424.5 280H428.5V284H424.5V280Z" fill="#E5E7EB"/>
<path d="M444.5 280H448.5V284H444.5V280Z" fill="#E5E7EB"/>
<path d="M464.5 280H468.5V284H464.5V280Z" fill="#E5E7EB"/>
<path d="M484.5 280H488.5V284H484.5V280Z" fill="#E5E7EB"/>
<path d="M504.5 280H508.5V284H504.5V280Z" fill="#E5E7EB"/>
<path d="M524.5 280H528.5V284H524.5V280Z" fill="#E5E7EB"/>
<path d="M544.5 280H548.5V284H544.5V280Z" fill="#E5E7EB"/>
<path d="M564.5 280H568.5V284H564.5V280Z" fill="#E5E7EB"/>
<path d="M584.5 280H588.5V284H584.5V280Z" fill="#E5E7EB"/>
<path d="M604.5 280H608.5V284H604.5V280Z" fill="#E5E7EB"/>
<path d="M624.5 280H628.5V284H624.5V280Z" fill="#E5E7EB"/>
<path d="M224.5 300H228.5V304H224.5V300Z" fill="#E5E7EB"/>
<path d="M244.5 300H248.5V304H244.5V300Z" fill="#E5E7EB"/>
<path d="M264.5 300H268.5V304H264.5V300Z" fill="#E5E7EB"/>
<path d="M284.5 300H288.5V304H284.5V300Z" fill="#E5E7EB"/>
<path d="M304.5 300H308.5V304H304.5V300Z" fill="#E5E7EB"/>
<path d="M324.5 300H328.5V304H324.5V300Z" fill="#E5E7EB"/>
<path d="M344.5 300H348.5V304H344.5V300Z" fill="#E5E7EB"/>
<path d="M364.5 300H368.5V304H364.5V300Z" fill="#E5E7EB"/>
<path d="M384.5 300H388.5V304H384.5V300Z" fill="#E5E7EB"/>
<path d="M404.5 300H408.5V304H404.5V300Z" fill="#E5E7EB"/>
<path d="M424.5 300H428.5V304H424.5V300Z" fill="#E5E7EB"/>
<path d="M444.5 300H448.5V304H444.5V300Z" fill="#E5E7EB"/>
<path d="M464.5 300H468.5V304H464.5V300Z" fill="#E5E7EB"/>
<path d="M484.5 300H488.5V304H484.5V300Z" fill="#E5E7EB"/>
<path d="M504.5 300H508.5V304H504.5V300Z" fill="#E5E7EB"/>
<path d="M524.5 300H528.5V304H524.5V300Z" fill="#E5E7EB"/>
<path d="M544.5 300H548.5V304H544.5V300Z" fill="#E5E7EB"/>
<path d="M564.5 300H568.5V304H564.5V300Z" fill="#E5E7EB"/>
<path d="M584.5 300H588.5V304H584.5V300Z" fill="#E5E7EB"/>
<path d="M604.5 300H608.5V304H604.5V300Z" fill="#E5E7EB"/>
<path d="M624.5 300H628.5V304H624.5V300Z" fill="#E5E7EB"/>
<path d="M224.5 320H228.5V324H224.5V320Z" fill="#E5E7EB"/>
<path d="M244.5 320H248.5V324H244.5V320Z" fill="#E5E7EB"/>
<path d="M264.5 320H268.5V324H264.5V320Z" fill="#E5E7EB"/>
<path d="M284.5 320H288.5V324H284.5V320Z" fill="#E5E7EB"/>
<path d="M304.5 320H308.5V324H304.5V320Z" fill="#E5E7EB"/>
<path d="M324.5 320H328.5V324H324.5V320Z" fill="#E5E7EB"/>
<path d="M344.5 320H348.5V324H344.5V320Z" fill="#E5E7EB"/>
<path d="M364.5 320H368.5V324H364.5V320Z" fill="#E5E7EB"/>
<path d="M384.5 320H388.5V324H384.5V320Z" fill="#E5E7EB"/>
<path d="M404.5 320H408.5V324H404.5V320Z" fill="#E5E7EB"/>
<path d="M424.5 320H428.5V324H424.5V320Z" fill="#E5E7EB"/>
<path d="M444.5 320H448.5V324H444.5V320Z" fill="#E5E7EB"/>
<path d="M464.5 320H468.5V324H464.5V320Z" fill="#E5E7EB"/>
<path d="M484.5 320H488.5V324H484.5V320Z" fill="#E5E7EB"/>
<path d="M504.5 320H508.5V324H504.5V320Z" fill="#E5E7EB"/>
<path d="M524.5 320H528.5V324H524.5V320Z" fill="#E5E7EB"/>
<path d="M544.5 320H548.5V324H544.5V320Z" fill="#E5E7EB"/>
<path d="M564.5 320H568.5V324H564.5V320Z" fill="#E5E7EB"/>
<path d="M584.5 320H588.5V324H584.5V320Z" fill="#E5E7EB"/>
<path d="M604.5 320H608.5V324H604.5V320Z" fill="#E5E7EB"/>
<path d="M624.5 320H628.5V324H624.5V320Z" fill="#E5E7EB"/>
<path d="M224.5 340H228.5V344H224.5V340Z" fill="#E5E7EB"/>
<path d="M244.5 340H248.5V344H244.5V340Z" fill="#E5E7EB"/>
<path d="M264.5 340H268.5V344H264.5V340Z" fill="#E5E7EB"/>
<path d="M284.5 340H288.5V344H284.5V340Z" fill="#E5E7EB"/>
<path d="M304.5 340H308.5V344H304.5V340Z" fill="#E5E7EB"/>
<path d="M324.5 340H328.5V344H324.5V340Z" fill="#E5E7EB"/>
<path d="M344.5 340H348.5V344H344.5V340Z" fill="#E5E7EB"/>
<path d="M364.5 340H368.5V344H364.5V340Z" fill="#E5E7EB"/>
<path d="M384.5 340H388.5V344H384.5V340Z" fill="#E5E7EB"/>
<path d="M404.5 340H408.5V344H404.5V340Z" fill="#E5E7EB"/>
<path d="M424.5 340H428.5V344H424.5V340Z" fill="#E5E7EB"/>
<path d="M444.5 340H448.5V344H444.5V340Z" fill="#E5E7EB"/>
<path d="M464.5 340H468.5V344H464.5V340Z" fill="#E5E7EB"/>
<path d="M484.5 340H488.5V344H484.5V340Z" fill="#E5E7EB"/>
<path d="M504.5 340H508.5V344H504.5V340Z" fill="#E5E7EB"/>
<path d="M524.5 340H528.5V344H524.5V340Z" fill="#E5E7EB"/>
<path d="M544.5 340H548.5V344H544.5V340Z" fill="#E5E7EB"/>
<path d="M564.5 340H568.5V344H564.5V340Z" fill="#E5E7EB"/>
<path d="M584.5 340H588.5V344H584.5V340Z" fill="#E5E7EB"/>
<path d="M604.5 340H608.5V344H604.5V340Z" fill="#E5E7EB"/>
<path d="M624.5 340H628.5V344H624.5V340Z" fill="#E5E7EB"/>
<path d="M224.5 360H228.5V364H224.5V360Z" fill="#E5E7EB"/>
<path d="M244.5 360H248.5V364H244.5V360Z" fill="#E5E7EB"/>
<path d="M264.5 360H268.5V364H264.5V360Z" fill="#E5E7EB"/>
<path d="M284.5 360H288.5V364H284.5V360Z" fill="#E5E7EB"/>
<path d="M304.5 360H308.5V364H304.5V360Z" fill="#E5E7EB"/>
<path d="M324.5 360H328.5V364H324.5V360Z" fill="#E5E7EB"/>
<path d="M344.5 360H348.5V364H344.5V360Z" fill="#E5E7EB"/>
<path d="M364.5 360H368.5V364H364.5V360Z" fill="#E5E7EB"/>
<path d="M384.5 360H388.5V364H384.5V360Z" fill="#E5E7EB"/>
<path d="M404.5 360H408.5V364H404.5V360Z" fill="#E5E7EB"/>
<path d="M424.5 360H428.5V364H424.5V360Z" fill="#E5E7EB"/>
<path d="M444.5 360H448.5V364H444.5V360Z" fill="#E5E7EB"/>
<path d="M464.5 360H468.5V364H464.5V360Z" fill="#E5E7EB"/>
<path d="M484.5 360H488.5V364H484.5V360Z" fill="#E5E7EB"/>
<path d="M504.5 360H508.5V364H504.5V360Z" fill="#E5E7EB"/>
<path d="M524.5 360H528.5V364H524.5V360Z" fill="#E5E7EB"/>
<path d="M544.5 360H548.5V364H544.5V360Z" fill="#E5E7EB"/>
<path d="M564.5 360H568.5V364H564.5V360Z" fill="#E5E7EB"/>
<path d="M584.5 360H588.5V364H584.5V360Z" fill="#E5E7EB"/>
<path d="M604.5 360H608.5V364H604.5V360Z" fill="#E5E7EB"/>
<path d="M624.5 360H628.5V364H624.5V360Z" fill="#E5E7EB"/>
<path d="M224.5 380H228.5V384H224.5V380Z" fill="#E5E7EB"/>
<path d="M244.5 380H248.5V384H244.5V380Z" fill="#E5E7EB"/>
<path d="M264.5 380H268.5V384H264.5V380Z" fill="#E5E7EB"/>
<path d="M284.5 380H288.5V384H284.5V380Z" fill="#E5E7EB"/>
<path d="M304.5 380H308.5V384H304.5V380Z" fill="#E5E7EB"/>
<path d="M324.5 380H328.5V384H324.5V380Z" fill="#E5E7EB"/>
<path d="M344.5 380H348.5V384H344.5V380Z" fill="#E5E7EB"/>
<path d="M364.5 380H368.5V384H364.5V380Z" fill="#E5E7EB"/>
<path d="M384.5 380H388.5V384H384.5V380Z" fill="#E5E7EB"/>
<path d="M404.5 380H408.5V384H404.5V380Z" fill="#E5E7EB"/>
<path d="M424.5 380H428.5V384H424.5V380Z" fill="#E5E7EB"/>
<path d="M444.5 380H448.5V384H444.5V380Z" fill="#E5E7EB"/>
<path d="M464.5 380H468.5V384H464.5V380Z" fill="#E5E7EB"/>
<path d="M484.5 380H488.5V384H484.5V380Z" fill="#E5E7EB"/>
<path d="M504.5 380H508.5V384H504.5V380Z" fill="#E5E7EB"/>
<path d="M524.5 380H528.5V384H524.5V380Z" fill="#E5E7EB"/>
<path d="M544.5 380H548.5V384H544.5V380Z" fill="#E5E7EB"/>
<path d="M564.5 380H568.5V384H564.5V380Z" fill="#E5E7EB"/>
<path d="M584.5 380H588.5V384H584.5V380Z" fill="#E5E7EB"/>
<path d="M604.5 380H608.5V384H604.5V380Z" fill="#E5E7EB"/>
<path d="M624.5 380H628.5V384H624.5V380Z" fill="#E5E7EB"/>
<path d="M224.5 400H228.5V404H224.5V400Z" fill="#E5E7EB"/>
<path d="M244.5 400H248.5V404H244.5V400Z" fill="#E5E7EB"/>
<path d="M264.5 400H268.5V404H264.5V400Z" fill="#E5E7EB"/>
<path d="M284.5 400H288.5V404H284.5V400Z" fill="#E5E7EB"/>
<path d="M304.5 400H308.5V404H304.5V400Z" fill="#E5E7EB"/>
<path d="M324.5 400H328.5V404H324.5V400Z" fill="#E5E7EB"/>
<path d="M344.5 400H348.5V404H344.5V400Z" fill="#E5E7EB"/>
<path d="M364.5 400H368.5V404H364.5V400Z" fill="#E5E7EB"/>
<path d="M384.5 400H388.5V404H384.5V400Z" fill="#E5E7EB"/>
<path d="M404.5 400H408.5V404H404.5V400Z" fill="#E5E7EB"/>
<path d="M424.5 400H428.5V404H424.5V400Z" fill="#E5E7EB"/>
<path d="M444.5 400H448.5V404H444.5V400Z" fill="#E5E7EB"/>
<path d="M464.5 400H468.5V404H464.5V400Z" fill="#E5E7EB"/>
<path d="M484.5 400H488.5V404H484.5V400Z" fill="#E5E7EB"/>
<path d="M504.5 400H508.5V404H504.5V400Z" fill="#E5E7EB"/>
<path d="M524.5 400H528.5V404H524.5V400Z" fill="#E5E7EB"/>
<path d="M544.5 400H548.5V404H544.5V400Z" fill="#E5E7EB"/>
<path d="M564.5 400H568.5V404H564.5V400Z" fill="#E5E7EB"/>
<path d="M584.5 400H588.5V404H584.5V400Z" fill="#E5E7EB"/>
<path d="M604.5 400H608.5V404H604.5V400Z" fill="#E5E7EB"/>
<path d="M624.5 400H628.5V404H624.5V400Z" fill="#E5E7EB"/>
</g>
<defs>
<clipPath id="clip0_1146_127">
<rect width="784" height="404" fill="white" transform="translate(-195.5)"/>
</clipPath>
</defs>
</svg>
