<svg width="49" height="40" viewBox="0 0 49 40" fill="none" xmlns="http://www.w3.org/2000/svg">
<g clip-path="url(#clip0_1171_590)">
<path fill-rule="evenodd" clip-rule="evenodd" d="M44.8119 20C44.8119 8.954 35.8579 0 24.8119 0C13.7659 0 4.81192 8.954 4.81192 20C4.81192 29.982 12.1259 38.256 21.6879 39.756V25.782H16.6079V20H21.6879V15.594C21.6879 10.582 24.6719 7.814 29.2419 7.814C31.4299 7.814 33.7179 8.204 33.7179 8.204V13.124H31.1979C28.7119 13.124 27.9379 14.666 27.9379 16.248V20H33.4839L32.5979 25.78H27.9379V39.756C37.4979 38.256 44.8119 29.982 44.8119 20Z" fill="#D1D5DB"/>
</g>
<defs>
<clipPath id="clip0_1171_590">
<rect width="40" height="40" fill="white" transform="translate(4.81192)"/>
</clipPath>
</defs>
</svg>
