<svg width="40" height="40" viewBox="0 0 40 40" fill="none" xmlns="http://www.w3.org/2000/svg">
<g clip-path="url(#clip0_1171_584)">
<path d="M11.7168 0.139936C9.5888 0.240336 8.1356 0.579936 6.8652 1.07914C5.5504 1.59154 4.436 2.27914 3.3272 3.39194C2.2184 4.50474 1.5356 5.61994 1.0268 6.93674C0.534402 8.20994 0.200802 9.66434 0.106802 11.7935C0.0128019 13.9227 -0.00799809 14.6071 0.00240191 20.0383C0.0128019 25.4695 0.0368019 26.1503 0.140002 28.2839C0.241602 30.4115 0.580002 31.8643 1.0792 33.1351C1.5924 34.4499 2.2792 35.5639 3.3924 36.6731C4.5056 37.7823 5.62 38.4635 6.94 38.9731C8.212 39.4647 9.6668 39.7999 11.7956 39.8931C13.9244 39.9863 14.6096 40.0079 20.0392 39.9975C25.4688 39.9871 26.1524 39.9631 28.2856 39.8619C30.4188 39.7607 31.864 39.4199 33.1352 38.9231C34.45 38.4087 35.5648 37.7231 36.6732 36.6095C37.7816 35.4959 38.464 34.3799 38.9724 33.0623C39.4652 31.7903 39.8 30.3355 39.8924 28.2083C39.9856 26.0735 40.0076 25.3919 39.9972 19.9615C39.9868 14.5311 39.9624 13.8503 39.8612 11.7175C39.76 9.58474 39.4212 8.13634 38.9224 6.86474C38.4084 5.54994 37.7224 4.43674 36.6096 3.32674C35.4968 2.21674 34.38 1.53474 33.0628 1.02754C31.79 0.535136 30.336 0.199536 28.2072 0.107536C26.0784 0.0155363 25.3932 -0.00806374 19.9616 0.00233626C14.53 0.0127363 13.85 0.0359363 11.7168 0.139936ZM11.9504 36.2951C10.0004 36.2103 8.9416 35.8863 8.236 35.6151C7.3016 35.2551 6.636 34.8199 5.9328 34.1235C5.2296 33.4271 4.7976 32.7591 4.4328 31.8267C4.1588 31.1211 3.8288 30.0635 3.7376 28.1135C3.6384 26.0059 3.6176 25.3731 3.606 20.0335C3.5944 14.6939 3.6148 14.0619 3.7072 11.9535C3.7904 10.0051 4.1164 8.94514 4.3872 8.23994C4.7472 7.30434 5.1808 6.63994 5.8788 5.93714C6.5768 5.23434 7.2428 4.80154 8.176 4.43674C8.8808 4.16154 9.9384 3.83434 11.8876 3.74154C13.9968 3.64154 14.6288 3.62154 19.9676 3.60994C25.3064 3.59834 25.94 3.61834 28.05 3.71114C29.9984 3.79594 31.0588 4.11874 31.7632 4.39114C32.698 4.75114 33.3632 5.18354 34.066 5.88274C34.7688 6.58194 35.202 7.24554 35.5668 8.18074C35.8424 8.88354 36.1696 9.94074 36.2616 11.8911C36.362 14.0003 36.3848 14.6327 36.3944 19.9711C36.404 25.3095 36.3852 25.9435 36.2928 28.0511C36.2076 30.0011 35.8844 31.0603 35.6128 31.7667C35.2528 32.7007 34.8188 33.3667 34.1204 34.0691C33.422 34.7715 32.7568 35.2043 31.8232 35.5691C31.1192 35.8439 30.0604 36.1719 28.1128 36.2647C26.0036 36.3639 25.3716 36.3847 20.0308 36.3963C14.69 36.4079 14.06 36.3863 11.9508 36.2951M28.2548 9.31074C28.2556 9.78544 28.3971 10.2493 28.6616 10.6435C28.926 11.0378 29.3014 11.3448 29.7402 11.5256C30.1791 11.7065 30.6618 11.7532 31.1272 11.6598C31.5927 11.5663 32.0199 11.337 32.355 11.0007C32.69 10.6644 32.9178 10.2363 33.0096 9.77053C33.1013 9.30477 33.0528 8.82227 32.8703 8.38404C32.6878 7.94582 32.3795 7.57156 31.9843 7.3086C31.589 7.04564 31.1247 6.90579 30.65 6.90674C30.0136 6.90801 29.4038 7.16197 28.9546 7.61279C28.5055 8.0636 28.2537 8.67435 28.2548 9.31074ZM9.7308 20.0199C9.742 25.6919 14.3484 30.2795 20.0192 30.2687C25.69 30.2579 30.2808 25.6519 30.27 19.9799C30.2592 14.3079 25.6516 9.71914 19.98 9.73034C14.3084 9.74154 9.72 14.3487 9.7308 20.0199ZM13.3332 20.0127C13.3306 18.6942 13.719 17.4044 14.4494 16.3066C15.1798 15.2089 16.2193 14.3523 17.4365 13.8453C18.6537 13.3383 19.9939 13.2036 21.2877 13.4583C22.5814 13.713 23.7706 14.3456 24.7048 15.2761C25.639 16.2066 26.2763 17.3933 26.5361 18.686C26.7959 19.9787 26.6665 21.3194 26.1643 22.5386C25.6622 23.7578 24.8097 24.8007 23.7148 25.5354C22.6199 26.2702 21.3318 26.6637 20.0132 26.6663C19.1377 26.6682 18.2704 26.4975 17.4608 26.1641C16.6512 25.8307 15.9153 25.3411 15.295 24.7232C14.6746 24.1054 14.1821 23.3714 13.8455 22.5631C13.5089 21.7549 13.3348 20.8883 13.3332 20.0127Z" fill="#D1D5DB"/>
</g>
<defs>
<clipPath id="clip0_1171_584">
<rect width="40" height="40" fill="white"/>
</clipPath>
</defs>
</svg>
