<svg width="166" height="40" viewBox="0 0 166 40" fill="none" xmlns="http://www.w3.org/2000/svg">
<g clip-path="url(#clip0_1114_735)">
<rect width="20" height="2" fill="#F3CA52"/>
<rect y="2" width="2" height="18" fill="#F3CA52"/>
<rect x="40" y="40" width="40" height="2" transform="rotate(-180 40 40)" fill="#F3CA52"/>
<rect x="40" y="38" width="2" height="38" transform="rotate(-180 40 38)" fill="#F3CA52"/>
<path d="M8.406 20.982H12.648C12.9373 20.982 13.1893 21.01 13.404 21.066C13.6187 21.122 13.81 21.2153 13.978 21.346L14.482 21.164V21.948V22.76H9.162C8.95667 22.76 8.798 22.704 8.686 22.592C8.574 22.48 8.49933 22.3167 8.462 22.102C8.42467 21.878 8.406 21.612 8.406 21.304V20.982ZM10.982 25.014C10.8327 25.0513 10.6787 25.0793 10.52 25.098C10.3707 25.126 10.2213 25.14 10.072 25.14C9.848 25.14 9.64733 25.112 9.47 25.056C9.29267 25 9.15267 24.9113 9.05 24.79C8.95667 24.6593 8.91 24.4913 8.91 24.286C8.91 23.7727 8.93333 23.264 8.98 22.76C9.02667 22.256 9.092 21.7613 9.176 21.276C9.26 20.7813 9.36267 20.3053 9.484 19.848C9.60533 19.3907 9.74067 18.9473 9.89 18.518C10.0487 18.0887 10.2213 17.678 10.408 17.286C10.5947 16.8847 10.7953 16.5067 11.01 16.152C11.2247 15.7973 11.4533 15.466 11.696 15.158C11.8173 15.1207 11.948 15.0973 12.088 15.088C12.228 15.0693 12.3913 15.06 12.578 15.06C12.942 15.06 13.2547 15.116 13.516 15.228C13.7867 15.34 14.0293 15.5407 14.244 15.83C14.468 16.11 14.6873 16.5067 14.902 17.02C15.07 17.4027 15.224 17.8227 15.364 18.28C15.5133 18.7373 15.6533 19.2227 15.784 19.736C15.9147 20.2493 16.0313 20.786 16.134 21.346C16.2367 21.906 16.316 22.4707 16.372 23.04C16.4093 23.3667 16.4373 23.698 16.456 24.034C16.4747 24.3607 16.4887 24.6873 16.498 25.014C16.386 25.0513 16.2553 25.0793 16.106 25.098C15.966 25.126 15.8213 25.14 15.672 25.14C15.4013 25.14 15.1727 25.1073 14.986 25.042C14.8087 24.9767 14.6733 24.8787 14.58 24.748C14.4867 24.6173 14.4307 24.4587 14.412 24.272C14.3653 23.572 14.3 22.9327 14.216 22.354C14.1413 21.7753 14.048 21.234 13.936 20.73C13.8333 20.2167 13.712 19.736 13.572 19.288C13.432 18.8307 13.278 18.3873 13.11 17.958C12.9513 17.5287 12.774 17.0947 12.578 16.656L13.152 17.062H12.228L12.844 16.656C12.6013 17.1693 12.3773 17.664 12.172 18.14C11.976 18.616 11.808 19.0967 11.668 19.582C11.528 20.0673 11.4067 20.5807 11.304 21.122C11.2013 21.6633 11.122 22.2513 11.066 22.886C11.0193 23.5207 10.9913 24.23 10.982 25.014ZM18.442 15.186C18.5447 15.158 18.638 15.1393 18.722 15.13C18.8154 15.1207 18.904 15.1113 18.988 15.102C19.0814 15.0927 19.1654 15.088 19.24 15.088C19.604 15.088 19.884 15.13 20.08 15.214C20.276 15.298 20.4114 15.4473 20.486 15.662C20.57 15.8767 20.612 16.1753 20.612 16.558C20.6214 17.2207 20.6447 17.832 20.682 18.392C20.7194 18.952 20.766 19.47 20.822 19.946C20.8874 20.422 20.9667 20.8653 21.06 21.276C21.1534 21.6773 21.2607 22.0553 21.382 22.41C21.5127 22.7553 21.662 23.082 21.83 23.39L21.186 23.012H22.04L21.48 23.39C21.7414 23.0167 21.9887 22.5407 22.222 21.962C22.4647 21.3833 22.684 20.7347 22.88 20.016C23.076 19.288 23.2487 18.518 23.398 17.706C23.5474 16.8847 23.6594 16.0493 23.734 15.2H24.154C24.4434 15.2 24.7 15.2327 24.924 15.298C25.148 15.3633 25.3207 15.4707 25.442 15.62C25.5727 15.76 25.6427 15.9607 25.652 16.222C25.708 16.8007 25.778 17.3747 25.862 17.944C25.946 18.504 26.0487 19.0407 26.17 19.554C26.2914 20.0673 26.4267 20.5573 26.576 21.024C26.7254 21.4813 26.8887 21.906 27.066 22.298C27.2434 22.6807 27.4347 23.0213 27.64 23.32L26.982 23.012H27.892L27.276 23.404C27.4814 23.1053 27.6634 22.7553 27.822 22.354C27.99 21.9527 28.13 21.5047 28.242 21.01C28.3634 20.5153 28.4567 19.9693 28.522 19.372C28.5967 18.7747 28.6527 18.1307 28.69 17.44C28.7274 16.7493 28.7414 15.998 28.732 15.186C28.816 15.158 28.8954 15.1393 28.97 15.13C29.054 15.1207 29.138 15.1113 29.222 15.102C29.306 15.0927 29.39 15.088 29.474 15.088C29.7914 15.088 30.0387 15.13 30.216 15.214C30.3934 15.2887 30.5194 15.4333 30.594 15.648C30.678 15.8627 30.72 16.18 30.72 16.6C30.7107 17.2067 30.6734 17.8087 30.608 18.406C30.552 19.0033 30.468 19.582 30.356 20.142C30.244 20.6927 30.1134 21.22 29.964 21.724C29.8147 22.2187 29.6467 22.676 29.46 23.096C29.2734 23.5067 29.0727 23.8753 28.858 24.202C28.6527 24.5287 28.4334 24.7947 28.2 25C28.1627 25.0093 28.1207 25.0187 28.074 25.028C28.0274 25.0467 27.976 25.0607 27.92 25.07C27.8734 25.0793 27.822 25.084 27.766 25.084C27.71 25.0933 27.654 25.098 27.598 25.098C27.3367 25.098 27.1454 25.0653 27.024 25C26.9027 24.944 26.7487 24.8227 26.562 24.636C26.3474 24.3933 26.1327 24.0947 25.918 23.74C25.7034 23.3853 25.5074 22.984 25.33 22.536C25.1527 22.0787 24.994 21.5793 24.854 21.038C24.714 20.4967 24.5974 19.918 24.504 19.302L24.994 19.806H24.14L24.616 19.302C24.532 19.806 24.4294 20.2867 24.308 20.744C24.1867 21.2013 24.0514 21.6353 23.902 22.046C23.762 22.4567 23.6034 22.844 23.426 23.208C23.258 23.5627 23.0807 23.8893 22.894 24.188C22.7167 24.4867 22.5347 24.7573 22.348 25C22.3107 25.0187 22.2594 25.0327 22.194 25.042C22.1287 25.0607 22.054 25.0747 21.97 25.084C21.8954 25.0933 21.802 25.098 21.69 25.098C21.522 25.098 21.368 25.07 21.228 25.014C21.088 24.9673 20.962 24.8833 20.85 24.762C20.626 24.538 20.402 24.286 20.178 24.006C19.9634 23.7167 19.7627 23.3713 19.576 22.97C19.3894 22.5593 19.2214 22.074 19.072 21.514C18.9227 20.954 18.8014 20.296 18.708 19.54C18.624 18.784 18.5727 17.9113 18.554 16.922C18.554 16.5953 18.5447 16.2827 18.526 15.984C18.5074 15.6853 18.4794 15.4193 18.442 15.186Z" fill="#F3CA52"/>
</g>
<path d="M52.58 21.26H58.64C59.0533 21.26 59.4133 21.3 59.72 21.38C60.0267 21.46 60.3 21.5933 60.54 21.78L61.26 21.52V22.64V23.8H53.66C53.3667 23.8 53.14 23.72 52.98 23.56C52.82 23.4 52.7133 23.1667 52.66 22.86C52.6067 22.54 52.58 22.16 52.58 21.72V21.26ZM56.26 27.02C56.0467 27.0733 55.8267 27.1133 55.6 27.14C55.3867 27.18 55.1733 27.2 54.96 27.2C54.64 27.2 54.3533 27.16 54.1 27.08C53.8467 27 53.6467 26.8733 53.5 26.7C53.3667 26.5133 53.3 26.2733 53.3 25.98C53.3 25.2467 53.3333 24.52 53.4 23.8C53.4667 23.08 53.56 22.3733 53.68 21.68C53.8 20.9733 53.9467 20.2933 54.12 19.64C54.2933 18.9867 54.4867 18.3533 54.7 17.74C54.9267 17.1267 55.1733 16.54 55.44 15.98C55.7067 15.4067 55.9933 14.8667 56.3 14.36C56.6067 13.8533 56.9333 13.38 57.28 12.94C57.4533 12.8867 57.64 12.8533 57.84 12.84C58.04 12.8133 58.2733 12.8 58.54 12.8C59.06 12.8 59.5067 12.88 59.88 13.04C60.2667 13.2 60.6133 13.4867 60.92 13.9C61.24 14.3 61.5533 14.8667 61.86 15.6C62.1 16.1467 62.32 16.7467 62.52 17.4C62.7333 18.0533 62.9333 18.7467 63.12 19.48C63.3067 20.2133 63.4733 20.98 63.62 21.78C63.7667 22.58 63.88 23.3867 63.96 24.2C64.0133 24.6667 64.0533 25.14 64.08 25.62C64.1067 26.0867 64.1267 26.5533 64.14 27.02C63.98 27.0733 63.7933 27.1133 63.58 27.14C63.38 27.18 63.1733 27.2 62.96 27.2C62.5733 27.2 62.2467 27.1533 61.98 27.06C61.7267 26.9667 61.5333 26.8267 61.4 26.64C61.2667 26.4533 61.1867 26.2267 61.16 25.96C61.0933 24.96 61 24.0467 60.88 23.22C60.7733 22.3933 60.64 21.62 60.48 20.9C60.3333 20.1667 60.16 19.48 59.96 18.84C59.76 18.1867 59.54 17.5533 59.3 16.94C59.0733 16.3267 58.82 15.7067 58.54 15.08L59.36 15.66H58.04L58.92 15.08C58.5733 15.8133 58.2533 16.52 57.96 17.2C57.68 17.88 57.44 18.5667 57.24 19.26C57.04 19.9533 56.8667 20.6867 56.72 21.46C56.5733 22.2333 56.46 23.0733 56.38 23.98C56.3133 24.8867 56.2733 25.9 56.26 27.02ZM67.1984 13.92C67.1984 13.5733 67.1718 13.2267 67.1184 12.88C67.0784 12.52 67.0118 12.22 66.9184 11.98C66.9718 11.9667 67.0318 11.9533 67.0984 11.94C67.1651 11.9267 67.2318 11.9133 67.2984 11.9C67.3784 11.8867 67.4518 11.88 67.5184 11.88C67.5984 11.8667 67.6718 11.86 67.7384 11.86C67.8184 11.86 67.9051 11.86 67.9984 11.86C68.3451 11.86 68.6584 11.9333 68.9384 12.08C69.2318 12.2267 69.4651 12.4733 69.6384 12.82C69.8251 13.1667 69.9184 13.6467 69.9184 14.26C69.9184 14.82 69.9184 15.3933 69.9184 15.98C69.9184 16.5533 69.9184 17.1333 69.9184 17.72C69.9184 18.2933 69.9184 18.8733 69.9184 19.46C69.9184 20.0333 69.9184 20.6067 69.9184 21.18C69.9184 21.7533 69.9184 22.3267 69.9184 22.9C69.9184 23.22 69.9251 23.5 69.9384 23.74C69.9651 23.98 70.0051 24.1933 70.0584 24.38C70.1384 24.4467 70.2251 24.5 70.3184 24.54C70.4251 24.5667 70.5518 24.58 70.6984 24.58C70.8318 24.58 70.9518 24.5733 71.0584 24.56C71.1651 24.5333 71.2651 24.5067 71.3584 24.48C71.4518 24.44 71.5384 24.3933 71.6184 24.34C71.7118 24.2867 71.7984 24.2267 71.8784 24.16H71.9984C72.0251 24.28 72.0451 24.4067 72.0584 24.54C72.0718 24.6733 72.0784 24.84 72.0784 25.04C72.0784 25.48 72.0318 25.8467 71.9384 26.14C71.8451 26.42 71.7118 26.6467 71.5384 26.82C71.4584 26.9 71.3651 26.96 71.2584 27C71.1651 27.0533 71.0584 27.0933 70.9384 27.12C70.8318 27.1467 70.7051 27.1667 70.5584 27.18C70.4251 27.1933 70.2851 27.2 70.1384 27.2C69.6051 27.2 69.1518 27.1067 68.7784 26.92C68.4184 26.7333 68.1184 26.4867 67.8784 26.18C67.6384 25.86 67.4651 25.5133 67.3584 25.14C67.2518 24.7533 67.1984 24.3733 67.1984 24C67.1984 23.12 67.1984 22.2533 67.1984 21.4C67.1984 20.5467 67.1984 19.7 67.1984 18.86C67.1984 18.0067 67.1984 17.1733 67.1984 16.36C67.1984 15.5333 67.1984 14.72 67.1984 13.92ZM79.2506 16C79.9173 16 80.544 16.1267 81.1306 16.38C81.7306 16.62 82.2573 16.9867 82.7106 17.48C83.1773 17.9733 83.544 18.5933 83.8106 19.34C84.0773 20.0733 84.2106 20.94 84.2106 21.94V22.2C84.2106 23.2 83.9906 24.08 83.5506 24.84C83.124 25.6 82.5306 26.1933 81.7706 26.62C81.0106 27.0333 80.124 27.24 79.1106 27.24C78.4306 27.24 77.7906 27.14 77.1906 26.94C76.604 26.7267 76.084 26.4133 75.6306 26C75.1773 25.5867 74.8173 25.06 74.5506 24.42C74.2973 23.78 74.1706 23.0333 74.1706 22.18V21.92C74.1706 20.7333 74.384 19.7 74.8106 18.82C75.2506 17.9267 75.8506 17.2333 76.6106 16.74C77.3706 16.2467 78.2506 16 79.2506 16ZM79.5906 18.54C78.964 18.54 78.444 18.6733 78.0306 18.94C77.6173 19.1933 77.304 19.5867 77.0906 20.12C76.8906 20.64 76.7906 21.3067 76.7906 22.12V22.26C76.7906 22.7 76.824 23.1133 76.8906 23.5C76.9573 23.8867 77.064 24.24 77.2106 24.56C77.4373 24.6133 77.664 24.6533 77.8906 24.68C78.1173 24.6933 78.3906 24.7 78.7106 24.7C79.364 24.7 79.8973 24.6067 80.3106 24.42C80.7373 24.2333 81.0573 23.94 81.2706 23.54C81.484 23.1267 81.5906 22.6133 81.5906 22V21.86C81.5906 21.22 81.544 20.64 81.4506 20.12C81.3573 19.6 81.2106 19.1267 81.0106 18.7C80.824 18.6333 80.6173 18.5933 80.3906 18.58C80.1773 18.5533 79.9106 18.54 79.5906 18.54ZM96.4828 27C96.2961 27.04 96.1228 27.0667 95.9628 27.08C95.8028 27.0933 95.6295 27.1 95.4428 27.1C94.9361 27.1 94.5028 27.0267 94.1428 26.88C93.7961 26.7333 93.5295 26.4667 93.3428 26.08C93.1695 25.68 93.0828 25.1267 93.0828 24.42C93.0828 23.9 93.1095 23.38 93.1628 22.86C93.2161 22.3267 93.2828 21.7867 93.3628 21.24C93.4561 20.68 93.5561 20.0933 93.6628 19.48C93.5561 19.32 93.4361 19.2 93.3028 19.12C93.1828 19.04 93.0428 19 92.8828 19C92.5628 19 92.2428 19.0867 91.9228 19.26C91.6161 19.4333 91.3095 19.7133 91.0028 20.1C90.7095 20.4867 90.4161 21 90.1228 21.64C89.8428 22.28 89.5695 23.0733 89.3028 24.02V19.48H89.8228C90.0895 18.8133 90.4295 18.22 90.8428 17.7C91.2561 17.18 91.7228 16.7667 92.2428 16.46C92.7628 16.1533 93.2961 16 93.8428 16C94.1628 16 94.4561 16.1 94.7228 16.3C94.9895 16.4867 95.2228 16.74 95.4228 17.06C95.6228 17.38 95.7828 17.7333 95.9028 18.12C96.0228 18.5067 96.0828 18.8933 96.0828 19.28C96.0828 19.7867 96.0828 20.3 96.0828 20.82C96.0828 21.34 96.0828 21.86 96.0828 22.38C96.0828 22.8867 96.0828 23.4 96.0828 23.92C96.0828 24.5333 96.1095 25.06 96.1628 25.5C96.2161 25.94 96.3228 26.44 96.4828 27ZM89.7028 27.02C89.6095 27.0333 89.5161 27.04 89.4228 27.04C89.3428 27.0533 89.2628 27.06 89.1828 27.06C89.1028 27.06 89.0161 27.06 88.9228 27.06C88.5628 27.06 88.2561 27.0267 88.0028 26.96C87.7495 26.88 87.5495 26.7667 87.4028 26.62C87.2561 26.4733 87.1495 26.3 87.0828 26.1C87.0295 25.9 87.0028 25.6733 87.0028 25.42C87.0028 24.7533 87.0028 24.1133 87.0028 23.5C87.0028 22.8733 87.0028 22.2667 87.0028 21.68C87.0028 21.08 87.0028 20.4933 87.0028 19.92C87.0028 19.3333 87.0028 18.7533 87.0028 18.18C87.0028 17.82 86.9761 17.4667 86.9228 17.12C86.8695 16.7733 86.7695 16.48 86.6228 16.24C86.7295 16.2133 86.8228 16.1933 86.9028 16.18C86.9961 16.1667 87.0895 16.1533 87.1828 16.14C87.2761 16.1267 87.3628 16.12 87.4428 16.12C87.8828 16.12 88.2761 16.22 88.6228 16.42C88.9695 16.6067 89.2361 16.9333 89.4228 17.4C89.6095 17.8667 89.7028 18.52 89.7028 19.36C89.7028 20.2267 89.7028 21.1133 89.7028 22.02C89.7028 22.9133 89.7028 23.7867 89.7028 24.64C89.7028 25.48 89.7028 26.2733 89.7028 27.02ZM100.655 25.7C100.655 25.4067 100.702 25.1333 100.795 24.88C100.902 24.6267 101.055 24.4067 101.255 24.22C101.468 24.02 101.728 23.86 102.035 23.74V23.44L103.515 23.56C103.382 23.7467 103.288 23.9467 103.235 24.16C103.182 24.36 103.155 24.5867 103.155 24.84C103.155 25.0267 103.215 25.1867 103.335 25.32C103.468 25.44 103.655 25.5133 103.895 25.54L106.535 25.72C107.042 25.76 107.488 25.8867 107.875 26.1C108.262 26.3 108.568 26.58 108.795 26.94C109.022 27.2867 109.135 27.7067 109.135 28.2V28.5C109.135 29.0333 109.002 29.52 108.735 29.96C108.468 30.4 108.075 30.7667 107.555 31.06C107.035 31.3667 106.388 31.6 105.615 31.76C104.842 31.92 103.942 32 102.915 32H102.635C101.715 32 100.942 31.8933 100.315 31.68C99.6883 31.4667 99.215 31.16 98.895 30.76C98.575 30.3733 98.415 29.9133 98.415 29.38V29.14C98.415 28.74 98.5217 28.3733 98.735 28.04C98.9483 27.72 99.2483 27.4533 99.635 27.24C100.022 27.04 100.468 26.9267 100.975 26.9V26.44L102.315 27.22C102.035 27.3533 101.808 27.5 101.635 27.66C101.462 27.82 101.335 28 101.255 28.2C101.175 28.4 101.135 28.6333 101.135 28.9V29.1C101.135 29.3667 101.195 29.5867 101.315 29.76C101.448 29.9333 101.648 30.0533 101.915 30.12C102.195 30.2 102.548 30.24 102.975 30.24H103.335C103.922 30.24 104.448 30.22 104.915 30.18C105.395 30.14 105.835 30.0667 106.235 29.96C106.328 29.8267 106.388 29.6867 106.415 29.54C106.442 29.4067 106.455 29.2667 106.455 29.12V28.92C106.455 28.6933 106.388 28.5133 106.255 28.38C106.135 28.2467 105.955 28.1733 105.715 28.16L103.435 28C102.862 27.9467 102.368 27.8133 101.955 27.6C101.542 27.4 101.222 27.1333 100.995 26.8C100.768 26.4667 100.655 26.1 100.655 25.7ZM104.515 18.08L106.475 18.14V18.66C106.942 18.8867 107.302 19.1667 107.555 19.5C107.808 19.8333 107.935 20.2267 107.935 20.68V20.88C107.935 21.5067 107.748 22.04 107.375 22.48C107.002 22.9067 106.488 23.2333 105.835 23.46C105.182 23.6867 104.442 23.8 103.615 23.8C102.708 23.8133 101.902 23.68 101.195 23.4C100.502 23.1067 99.955 22.68 99.555 22.12C99.155 21.56 98.955 20.9 98.955 20.14V19.96C98.955 19.16 99.155 18.4667 99.555 17.88C99.9683 17.28 100.568 16.8133 101.355 16.48C102.155 16.1467 103.135 15.98 104.295 15.98C105.148 15.98 105.915 15.9933 106.595 16.02C107.288 16.0467 108.028 16.1 108.815 16.18C108.855 16.26 108.882 16.3867 108.895 16.56C108.922 16.72 108.935 16.8867 108.935 17.06C108.935 17.5133 108.862 17.88 108.715 18.16C108.582 18.44 108.348 18.58 108.015 18.58C107.762 18.58 107.475 18.56 107.155 18.52C106.848 18.48 106.448 18.44 105.955 18.4C105.462 18.36 104.842 18.34 104.095 18.34C103.215 18.34 102.548 18.5 102.095 18.82C101.655 19.1267 101.435 19.6067 101.435 20.26V20.42C101.435 20.5933 101.455 20.7733 101.495 20.96C101.535 21.1333 101.608 21.3067 101.715 21.48C101.995 21.6 102.275 21.6867 102.555 21.74C102.835 21.7933 103.182 21.82 103.595 21.82C104.235 21.82 104.728 21.6933 105.075 21.44C105.422 21.1867 105.595 20.82 105.595 20.34V20.12C105.595 19.8933 105.568 19.66 105.515 19.42C105.462 19.18 105.355 18.9467 105.195 18.72C105.048 18.48 104.822 18.2667 104.515 18.08ZM117.463 12.98C117.61 12.94 117.743 12.9133 117.863 12.9C117.997 12.8867 118.123 12.8733 118.243 12.86C118.377 12.8467 118.497 12.84 118.603 12.84C119.123 12.84 119.523 12.9 119.803 13.02C120.083 13.14 120.277 13.3533 120.383 13.66C120.503 13.9667 120.563 14.3933 120.563 14.94C120.577 15.8867 120.61 16.76 120.663 17.56C120.717 18.36 120.783 19.1 120.863 19.78C120.957 20.46 121.07 21.0933 121.203 21.68C121.337 22.2533 121.49 22.7933 121.663 23.3C121.85 23.7933 122.063 24.26 122.303 24.7L121.383 24.16H122.603L121.803 24.7C122.177 24.1667 122.53 23.4867 122.863 22.66C123.21 21.8333 123.523 20.9067 123.803 19.88C124.083 18.84 124.33 17.74 124.543 16.58C124.757 15.4067 124.917 14.2133 125.023 13H125.623C126.037 13 126.403 13.0467 126.723 13.14C127.043 13.2333 127.29 13.3867 127.463 13.6C127.65 13.8 127.75 14.0867 127.763 14.46C127.843 15.2867 127.943 16.1067 128.063 16.92C128.183 17.72 128.33 18.4867 128.503 19.22C128.677 19.9533 128.87 20.6533 129.083 21.32C129.297 21.9733 129.53 22.58 129.783 23.14C130.037 23.6867 130.31 24.1733 130.603 24.6L129.663 24.16H130.963L130.083 24.72C130.377 24.2933 130.637 23.7933 130.863 23.22C131.103 22.6467 131.303 22.0067 131.463 21.3C131.637 20.5933 131.77 19.8133 131.863 18.96C131.97 18.1067 132.05 17.1867 132.103 16.2C132.157 15.2133 132.177 14.14 132.163 12.98C132.283 12.94 132.397 12.9133 132.503 12.9C132.623 12.8867 132.743 12.8733 132.863 12.86C132.983 12.8467 133.103 12.84 133.223 12.84C133.677 12.84 134.03 12.9 134.283 13.02C134.537 13.1267 134.717 13.3333 134.823 13.64C134.943 13.9467 135.003 14.4 135.003 15C134.99 15.8667 134.937 16.7267 134.843 17.58C134.763 18.4333 134.643 19.26 134.483 20.06C134.323 20.8467 134.137 21.6 133.923 22.32C133.71 23.0267 133.47 23.68 133.203 24.28C132.937 24.8667 132.65 25.3933 132.343 25.86C132.05 26.3267 131.737 26.7067 131.403 27C131.35 27.0133 131.29 27.0267 131.223 27.04C131.157 27.0667 131.083 27.0867 131.003 27.1C130.937 27.1133 130.863 27.12 130.783 27.12C130.703 27.1333 130.623 27.14 130.543 27.14C130.17 27.14 129.897 27.0933 129.723 27C129.55 26.92 129.33 26.7467 129.063 26.48C128.757 26.1333 128.45 25.7067 128.143 25.2C127.837 24.6933 127.557 24.12 127.303 23.48C127.05 22.8267 126.823 22.1133 126.623 21.34C126.423 20.5667 126.257 19.74 126.123 18.86L126.823 19.58H125.603L126.283 18.86C126.163 19.58 126.017 20.2667 125.843 20.92C125.67 21.5733 125.477 22.1933 125.263 22.78C125.063 23.3667 124.837 23.92 124.583 24.44C124.343 24.9467 124.09 25.4133 123.823 25.84C123.57 26.2667 123.31 26.6533 123.043 27C122.99 27.0267 122.917 27.0467 122.823 27.06C122.73 27.0867 122.623 27.1067 122.503 27.12C122.397 27.1333 122.263 27.14 122.103 27.14C121.863 27.14 121.643 27.1 121.443 27.02C121.243 26.9533 121.063 26.8333 120.903 26.66C120.583 26.34 120.263 25.98 119.943 25.58C119.637 25.1667 119.35 24.6733 119.083 24.1C118.817 23.5133 118.577 22.82 118.363 22.02C118.15 21.22 117.977 20.28 117.843 19.2C117.723 18.12 117.65 16.8733 117.623 15.46C117.623 14.9933 117.61 14.5467 117.583 14.12C117.557 13.6933 117.517 13.3133 117.463 12.98ZM138.767 24.78C138.767 24.46 138.767 24.1133 138.767 23.74C138.767 23.3533 138.767 22.96 138.767 22.56C138.767 22.16 138.767 21.76 138.767 21.36C138.767 20.9467 138.767 20.54 138.767 20.14C138.767 19.74 138.767 19.3533 138.767 18.98L138.647 18.96C138.594 19 138.534 19.04 138.467 19.08C138.401 19.12 138.334 19.1533 138.267 19.18C138.201 19.2067 138.121 19.2267 138.027 19.24C137.947 19.2533 137.861 19.26 137.767 19.26C137.474 19.26 137.241 19.12 137.067 18.84C136.907 18.56 136.827 18.1467 136.827 17.6C136.827 17.36 136.841 17.12 136.867 16.88C136.907 16.64 136.947 16.4267 136.987 16.24C137.134 16.2133 137.267 16.1933 137.387 16.18C137.521 16.1533 137.654 16.1333 137.787 16.12C137.921 16.1067 138.054 16.0933 138.187 16.08C138.321 16.0667 138.454 16.06 138.587 16.06C138.734 16.0467 138.881 16.04 139.027 16.04C139.494 16.04 139.914 16.1067 140.287 16.24C140.661 16.36 140.947 16.5533 141.147 16.82C141.361 17.0733 141.467 17.4067 141.467 17.82C141.467 18.3267 141.467 18.86 141.467 19.42C141.467 19.9667 141.467 20.52 141.467 21.08C141.467 21.64 141.467 22.1933 141.467 22.74C141.467 23.2733 141.467 23.78 141.467 24.26C141.467 24.62 141.474 24.94 141.487 25.22C141.514 25.4867 141.554 25.76 141.607 26.04C141.674 26.3067 141.761 26.6267 141.867 27C141.681 27.04 141.507 27.0667 141.347 27.08C141.187 27.0933 141.014 27.1 140.827 27.1C140.067 27.1 139.534 26.94 139.227 26.62C138.921 26.2867 138.767 25.6733 138.767 24.78ZM138.147 11.94C138.254 11.9 138.381 11.86 138.527 11.82C138.674 11.78 138.821 11.7467 138.967 11.72C139.127 11.6933 139.287 11.6733 139.447 11.66C139.621 11.6467 139.787 11.64 139.947 11.64C140.534 11.64 141.014 11.74 141.387 11.94C141.761 12.1267 141.947 12.4733 141.947 12.98V14.36C141.841 14.4 141.721 14.44 141.587 14.48C141.467 14.52 141.334 14.5533 141.187 14.58C141.054 14.6067 140.914 14.6267 140.767 14.64C140.634 14.6533 140.494 14.66 140.347 14.66C139.707 14.66 139.181 14.5133 138.767 14.22C138.354 13.9267 138.147 13.54 138.147 13.06V11.94ZM144.099 16.24H151.199C151.706 16.24 152.053 16.36 152.239 16.6C152.426 16.8267 152.519 17.24 152.519 17.84C152.519 17.9733 152.513 18.1067 152.499 18.24C152.486 18.3733 152.473 18.5 152.459 18.62C152.446 18.7267 152.426 18.8333 152.399 18.94H147.139C146.526 18.94 146.019 18.9 145.619 18.82C145.233 18.74 144.919 18.6067 144.679 18.42C144.453 18.2333 144.293 18.0067 144.199 17.74C144.106 17.46 144.059 17.1267 144.059 16.74C144.059 16.6733 144.059 16.6133 144.059 16.56C144.059 16.4933 144.059 16.4333 144.059 16.38C144.073 16.3267 144.086 16.28 144.099 16.24ZM152.419 23.92C152.446 24.04 152.466 24.16 152.479 24.28C152.493 24.4 152.499 24.5133 152.499 24.62C152.499 25.0733 152.453 25.46 152.359 25.78C152.266 26.1 152.139 26.3667 151.979 26.58C151.886 26.7 151.773 26.8067 151.639 26.9C151.506 26.98 151.339 27.0467 151.139 27.1C150.953 27.1533 150.739 27.1933 150.499 27.22C150.259 27.2467 149.993 27.26 149.699 27.26C149.193 27.26 148.719 27.18 148.279 27.02C147.853 26.86 147.473 26.6267 147.139 26.32C146.819 26.0133 146.573 25.6467 146.399 25.22C146.226 24.7933 146.139 24.32 146.139 23.8C146.139 23.0533 146.139 22.3133 146.139 21.58C146.139 20.8333 146.139 20.0933 146.139 19.36C146.139 18.6133 146.139 17.8733 146.139 17.14C146.139 16.3933 146.139 15.6533 146.139 14.92C146.139 14.6 146.119 14.28 146.079 13.96C146.053 13.64 145.999 13.32 145.919 13C146.133 12.9333 146.339 12.8867 146.539 12.86C146.739 12.8333 146.946 12.82 147.159 12.82C147.466 12.82 147.746 12.8867 147.999 13.02C148.253 13.1533 148.453 13.3533 148.599 13.62C148.759 13.8733 148.839 14.2067 148.839 14.62C148.839 15.3667 148.839 16.1133 148.839 16.86C148.839 17.5933 148.839 18.3333 148.839 19.08C148.839 19.8133 148.839 20.5533 148.839 21.3C148.839 22.0333 148.839 22.7733 148.839 23.52C148.839 23.68 148.846 23.8333 148.859 23.98C148.886 24.1133 148.919 24.2467 148.959 24.38C149.119 24.4333 149.273 24.48 149.419 24.52C149.566 24.5467 149.753 24.56 149.979 24.56C150.259 24.56 150.526 24.54 150.779 24.5C151.046 24.4467 151.306 24.3733 151.559 24.28C151.813 24.1867 152.059 24.0667 152.299 23.92H152.419ZM157.319 27.06C156.839 27.06 156.453 26.9867 156.159 26.84C155.866 26.6933 155.659 26.5 155.539 26.26C155.419 26.02 155.359 25.7667 155.359 25.5C155.359 24.38 155.359 23.3467 155.359 22.4C155.359 21.44 155.359 20.52 155.359 19.64C155.359 18.7467 155.359 17.84 155.359 16.92C155.359 15.9867 155.359 14.9933 155.359 13.94C155.359 13.5933 155.333 13.2467 155.279 12.9C155.226 12.54 155.126 12.24 154.979 12C155.086 11.9733 155.179 11.9533 155.259 11.94C155.353 11.9267 155.446 11.9133 155.539 11.9C155.633 11.8867 155.719 11.88 155.799 11.88C156.199 11.88 156.573 11.98 156.919 12.18C157.266 12.3667 157.539 12.7 157.739 13.18C157.953 13.6467 158.059 14.2933 158.059 15.12C158.059 16.1467 158.059 17.16 158.059 18.16C158.059 19.1467 158.059 20.1267 158.059 21.1C158.059 22.0733 158.059 23.0533 158.059 24.04C158.059 25.0133 158.059 26.0067 158.059 27.02C157.966 27.0333 157.879 27.04 157.799 27.04C157.719 27.0533 157.639 27.06 157.559 27.06C157.493 27.06 157.413 27.06 157.319 27.06ZM157.679 24.02V19.48H158.199C158.399 18.9867 158.639 18.5267 158.919 18.1C159.213 17.6733 159.533 17.3067 159.879 17C160.239 16.6933 160.613 16.4533 160.999 16.28C161.399 16.0933 161.806 16 162.219 16C162.539 16 162.833 16.1 163.099 16.3C163.366 16.4867 163.599 16.74 163.799 17.06C163.999 17.38 164.159 17.7333 164.279 18.12C164.399 18.5067 164.459 18.8933 164.459 19.28C164.459 19.7867 164.459 20.3 164.459 20.82C164.459 21.34 164.459 21.86 164.459 22.38C164.459 22.8867 164.459 23.4 164.459 23.92C164.459 24.5333 164.486 25.06 164.539 25.5C164.593 25.94 164.699 26.44 164.859 27C164.673 27.04 164.499 27.0667 164.339 27.08C164.179 27.0933 164.006 27.1 163.819 27.1C163.313 27.1 162.879 27.0267 162.519 26.88C162.173 26.7333 161.906 26.4667 161.719 26.08C161.546 25.68 161.459 25.1267 161.459 24.42C161.459 23.9 161.486 23.38 161.539 22.86C161.593 22.3267 161.659 21.7867 161.739 21.24C161.833 20.68 161.933 20.0933 162.039 19.48C161.933 19.32 161.813 19.2 161.679 19.12C161.559 19.04 161.419 19 161.259 19C160.939 19 160.619 19.0867 160.299 19.26C159.993 19.4333 159.686 19.7133 159.379 20.1C159.086 20.4867 158.793 21 158.499 21.64C158.219 22.28 157.946 23.0733 157.679 24.02Z" fill="#F3CA52"/>
<defs>
<clipPath id="clip0_1114_735">
<rect width="40" height="40" fill="white"/>
</clipPath>
</defs>
</svg>
