<svg width="36" height="40" viewBox="0 0 36 40" fill="none" xmlns="http://www.w3.org/2000/svg">
<path fill-rule="evenodd" clip-rule="evenodd" d="M20.9171 1.74519H26.0686C26.5651 4.36524 28.1564 6.61343 30.3609 8.01804C30.3616 8.01894 30.3625 8.01984 30.3632 8.02074C31.8978 8.99817 33.7276 9.56843 35.6919 9.56843V11.0992L35.6921 16.4441C32.0434 16.4441 28.6623 15.3034 25.9026 13.3674V27.3425C25.9026 34.3219 20.0927 40 12.9511 40C10.1915 40 7.63247 39.1495 5.52892 37.7059C5.5278 37.7048 5.52667 37.7034 5.52532 37.7023C2.18745 35.4105 0 31.622 0 27.3412C0 20.362 5.80989 14.6837 12.9515 14.6837C13.544 14.6837 14.1249 14.7313 14.6967 14.8072V16.4363L14.6965 21.8289C14.144 21.6599 13.56 21.5616 12.9511 21.5616C9.68967 21.5616 7.03634 24.1551 7.03634 27.3425C7.03634 29.5621 8.32488 31.4907 10.2075 32.4589C11.0284 32.8811 11.9608 33.1231 12.9508 33.1231C16.1371 33.1231 18.7362 30.6462 18.8545 27.56L18.8658 0H25.9023C25.9023 0.596129 25.9613 1.17876 26.0686 1.74519H20.9171Z" fill="#D1D5DB"/>
</svg>
