<svg width="58" height="40" viewBox="0 0 58 40" fill="none" xmlns="http://www.w3.org/2000/svg">
<path d="M56.7649 6.25882C56.106 3.81176 54.1766 1.88235 51.7296 1.22353C47.259 0 29.3766 0 29.3766 0C29.3766 0 11.4943 0 7.02368 1.17647C4.62368 1.83529 2.64721 3.81176 1.98839 6.25882C0.81192 10.7294 0.81192 20 0.81192 20C0.81192 20 0.81192 29.3176 1.98839 33.7412C2.64721 36.1882 4.57663 38.1176 7.02368 38.7765C11.5413 40 29.3766 40 29.3766 40C29.3766 40 47.259 40 51.7296 38.8235C54.1766 38.1647 56.106 36.2353 56.7649 33.7882C57.9413 29.3176 57.9413 20.0471 57.9413 20.0471C57.9413 20.0471 57.9884 10.7294 56.7649 6.25882Z" fill="#D1D5DB"/>
<path d="M23.6825 11.4353V28.5647L38.5531 20L23.6825 11.4353Z" fill="#0A6847"/>
</svg>
