<svg width="361" height="30" viewBox="0 0 361 30" fill="none" xmlns="http://www.w3.org/2000/svg">
<g clip-path="url(#clip0_1125_699)">
<path d="M8.78763 0.104967C7.19163 0.180267 6.10172 0.434967 5.14892 0.809367C4.16282 1.19367 3.32702 1.70937 2.49542 2.54397C1.66382 3.37857 1.15172 4.21497 0.770124 5.20257C0.400824 6.15747 0.150624 7.24827 0.0801243 8.84517C0.00962433 10.4421 -0.00597568 10.9554 0.00182432 15.0288C0.00962432 19.1022 0.0276243 19.6128 0.105024 21.213C0.181224 22.8087 0.435024 23.8983 0.809424 24.8514C1.19432 25.8375 1.70942 26.673 2.54432 27.5049C3.37922 28.3368 4.21502 28.8477 5.20502 29.2299C6.15902 29.5986 7.25013 29.85 8.84673 29.9199C10.4433 29.9898 10.9572 30.006 15.0294 29.9982C19.1016 29.9904 19.6143 29.9724 21.2142 29.8965C22.8141 29.8206 23.898 29.565 24.8514 29.1924C25.8375 28.8066 26.6736 28.2924 27.5049 27.4572C28.3362 26.622 28.848 25.785 29.2293 24.7968C29.5989 23.8428 29.85 22.7517 29.9193 21.1563C29.9892 19.5552 30.0057 19.044 29.9979 14.9712C29.9901 10.8984 29.9718 10.3878 29.8959 8.78817C29.82 7.18857 29.5659 6.10227 29.1918 5.14857C28.8063 4.16247 28.2918 3.32757 27.4572 2.49507C26.6226 1.66257 25.785 1.15107 24.7971 0.770667C23.8425 0.401367 22.752 0.149667 21.1554 0.0806674C19.5588 0.0116675 19.0449 -0.00603255 14.9712 0.00176745C10.8975 0.00956745 10.3875 0.0269675 8.78763 0.104967ZM8.96283 27.2214C7.50033 27.1578 6.70622 26.9148 6.17702 26.7114C5.47622 26.4414 4.97702 26.115 4.44962 25.5927C3.92222 25.0704 3.59822 24.5694 3.32462 23.8701C3.11912 23.3409 2.87162 22.5477 2.80322 21.0852C2.72882 19.5045 2.71322 19.0299 2.70452 15.0252C2.69582 11.0205 2.71112 10.5465 2.78042 8.96517C2.84282 7.50387 3.08732 6.70887 3.29042 6.17997C3.56042 5.47827 3.88562 4.97997 4.40912 4.45287C4.93262 3.92577 5.43212 3.60117 6.13202 3.32757C6.66062 3.12117 7.45382 2.87577 8.91572 2.80617C10.4976 2.73117 10.9716 2.71617 14.9757 2.70747C18.9798 2.69877 19.455 2.71377 21.0375 2.78337C22.4988 2.84697 23.2941 3.08907 23.8224 3.29337C24.5235 3.56337 25.0224 3.88767 25.5495 4.41207C26.0766 4.93647 26.4015 5.43417 26.6751 6.13557C26.8818 6.66267 27.1272 7.45557 27.1962 8.91837C27.2715 10.5003 27.2886 10.9746 27.2958 14.9784C27.303 18.9822 27.2889 19.4577 27.2196 21.0384C27.1557 22.5009 26.9133 23.2953 26.7096 23.8251C26.4396 24.5256 26.1141 25.0251 25.5903 25.5519C25.0665 26.0787 24.5676 26.4033 23.8674 26.6769C23.3394 26.883 22.5453 27.129 21.0846 27.1986C19.5027 27.273 19.0287 27.2886 15.0231 27.2973C11.0175 27.306 10.545 27.2898 8.96312 27.2214M21.1911 6.98307C21.1917 7.3391 21.2979 7.68696 21.4962 7.98265C21.6945 8.27834 21.976 8.50858 22.3052 8.64425C22.6344 8.77992 22.9964 8.81493 23.3454 8.74484C23.6945 8.67476 24.015 8.50273 24.2662 8.25052C24.5175 7.99831 24.6884 7.67724 24.7572 7.32792C24.826 6.9786 24.7897 6.61672 24.6528 6.28805C24.5159 5.95938 24.2846 5.67868 23.9882 5.48146C23.6918 5.28424 23.3436 5.17936 22.9875 5.18007C22.5102 5.18102 22.0529 5.3715 21.716 5.70961C21.3791 6.04772 21.1903 6.50578 21.1911 6.98307ZM7.29812 15.015C7.30652 19.269 10.7613 22.7097 15.0144 22.7016C19.2675 22.6935 22.7106 19.239 22.7025 14.985C22.6944 10.731 19.2387 7.28937 14.985 7.29777C10.7313 7.30617 7.29002 10.7616 7.29812 15.015ZM9.99992 15.0096C9.99797 14.0206 10.2893 13.0533 10.8371 12.23C11.3849 11.4067 12.1645 10.7642 13.0774 10.384C13.9903 10.0037 14.9955 9.90272 15.9658 10.0937C16.9361 10.2847 17.828 10.7592 18.5286 11.4571C19.2293 12.155 19.7072 13.045 19.9021 14.0145C20.0969 14.984 19.9999 15.9896 19.6233 16.904C19.2467 17.8184 18.6073 18.6005 17.7862 19.1516C16.965 19.7026 15.9988 19.9978 15.0099 19.9998C14.3533 20.0011 13.7028 19.8732 13.0956 19.6231C12.4884 19.3731 11.9365 19.0058 11.4712 18.5424C11.006 18.0791 10.6366 17.5285 10.3842 16.9224C10.1317 16.3162 10.0011 15.6662 9.99992 15.0096Z" fill="#D1D5DB"/>
</g>
<path fill-rule="evenodd" clip-rule="evenodd" d="M87.6879 1.3089H91.5514C91.9238 3.27393 93.1173 4.96007 94.7707 6.01353C94.7712 6.01421 94.7719 6.01488 94.7724 6.01555C95.9234 6.74862 97.2957 7.17632 98.7689 7.17632V8.32443L98.7691 12.3331C96.0325 12.3331 93.4967 11.4776 91.4269 10.0256V20.5069C91.4269 25.7414 87.0695 30 81.7133 30C79.6437 30 77.7244 29.3621 76.1467 28.2794C76.1458 28.2786 76.145 28.2776 76.144 28.2767C73.6406 26.5579 72 23.7165 72 20.5059C72 15.2715 76.3574 11.0127 81.7136 11.0127C82.158 11.0127 82.5937 11.0485 83.0225 11.1054V12.3272L83.0224 16.3717C82.608 16.245 82.17 16.1712 81.7133 16.1712C79.2673 16.1712 77.2773 18.1163 77.2773 20.5069C77.2773 22.1716 78.2437 23.618 79.6556 24.3441C80.2713 24.6608 80.9706 24.8424 81.7131 24.8424C84.1028 24.8424 86.0522 22.9846 86.1409 20.67L86.1493 0H91.4268C91.4268 0.447096 91.471 0.88407 91.5514 1.3089H87.6879Z" fill="#D1D5DB"/>
<g clip-path="url(#clip1_1125_699)">
<path d="M158.23 12.6964L169.153 0H166.564L157.08 11.0241L149.506 0H140.769L152.224 16.6704L140.769 29.9846H143.357L153.373 18.3427L161.372 29.9846H170.109L158.23 12.6964H158.23ZM154.685 16.8173L153.524 15.1573L144.29 1.94852H148.266L155.718 12.6084L156.879 14.2684L166.566 28.1247H162.59L154.685 16.8179V16.8173Z" fill="#D1D5DB"/>
</g>
<g clip-path="url(#clip2_1125_699)">
<path fill-rule="evenodd" clip-rule="evenodd" d="M246.109 15C246.109 6.7155 239.393 0 231.109 0C222.824 0 216.109 6.7155 216.109 15C216.109 22.4865 221.594 28.692 228.766 29.817V19.3365H224.956V15H228.766V11.6955C228.766 7.9365 231.004 5.8605 234.431 5.8605C236.072 5.8605 237.788 6.153 237.788 6.153V9.843H235.898C234.034 9.843 233.453 10.9995 233.453 12.186V15H237.613L236.948 19.335H233.453V29.817C240.623 28.692 246.109 22.4865 246.109 15Z" fill="#D1D5DB"/>
</g>
<path d="M334.074 4.69412C333.579 2.85882 332.132 1.41176 330.297 0.917647C326.944 0 313.532 0 313.532 0C313.532 0 300.121 0 296.768 0.882353C294.968 1.37647 293.485 2.85882 292.991 4.69412C292.109 8.04706 292.109 15 292.109 15C292.109 15 292.109 21.9882 292.991 25.3059C293.485 27.1412 294.932 28.5882 296.768 29.0824C300.156 30 313.532 30 313.532 30C313.532 30 326.944 30 330.297 29.1176C332.132 28.6235 333.579 27.1765 334.074 25.3412C334.956 21.9882 334.956 15.0353 334.956 15.0353C334.956 15.0353 334.991 8.04706 334.074 4.69412Z" fill="#D1D5DB"/>
<path d="M309.262 8.57648V21.4235L320.415 15L309.262 8.57648Z" fill="#0A6847"/>
<defs>
<clipPath id="clip0_1125_699">
<rect width="30" height="30" fill="white"/>
</clipPath>
<clipPath id="clip1_1125_699">
<rect width="29.3399" height="30" fill="white" transform="translate(140.769)"/>
</clipPath>
<clipPath id="clip2_1125_699">
<rect width="30" height="30" fill="white" transform="translate(216.109)"/>
</clipPath>
</defs>
</svg>
