<svg width="40" height="40" viewBox="0 0 40 40" fill="none" xmlns="http://www.w3.org/2000/svg">
<g clip-path="url(#clip0_1120_670)">
<rect width="20" height="2" fill="#F3CA52"/>
<rect y="2" width="2" height="18" fill="#F3CA52"/>
<rect x="40" y="40" width="40" height="2" transform="rotate(-180 40 40)" fill="#F3CA52"/>
<rect x="40" y="38" width="2" height="38" transform="rotate(-180 40 38)" fill="#F3CA52"/>
<path d="M8.406 20.982H12.648C12.9373 20.982 13.1893 21.01 13.404 21.066C13.6187 21.122 13.81 21.2153 13.978 21.346L14.482 21.164V21.948V22.76H9.162C8.95667 22.76 8.798 22.704 8.686 22.592C8.574 22.48 8.49933 22.3167 8.462 22.102C8.42467 21.878 8.406 21.612 8.406 21.304V20.982ZM10.982 25.014C10.8327 25.0513 10.6787 25.0793 10.52 25.098C10.3707 25.126 10.2213 25.14 10.072 25.14C9.848 25.14 9.64733 25.112 9.47 25.056C9.29267 25 9.15267 24.9113 9.05 24.79C8.95667 24.6593 8.91 24.4913 8.91 24.286C8.91 23.7727 8.93333 23.264 8.98 22.76C9.02667 22.256 9.092 21.7613 9.176 21.276C9.26 20.7813 9.36267 20.3053 9.484 19.848C9.60533 19.3907 9.74067 18.9473 9.89 18.518C10.0487 18.0887 10.2213 17.678 10.408 17.286C10.5947 16.8847 10.7953 16.5067 11.01 16.152C11.2247 15.7973 11.4533 15.466 11.696 15.158C11.8173 15.1207 11.948 15.0973 12.088 15.088C12.228 15.0693 12.3913 15.06 12.578 15.06C12.942 15.06 13.2547 15.116 13.516 15.228C13.7867 15.34 14.0293 15.5407 14.244 15.83C14.468 16.11 14.6873 16.5067 14.902 17.02C15.07 17.4027 15.224 17.8227 15.364 18.28C15.5133 18.7373 15.6533 19.2227 15.784 19.736C15.9147 20.2493 16.0313 20.786 16.134 21.346C16.2367 21.906 16.316 22.4707 16.372 23.04C16.4093 23.3667 16.4373 23.698 16.456 24.034C16.4747 24.3607 16.4887 24.6873 16.498 25.014C16.386 25.0513 16.2553 25.0793 16.106 25.098C15.966 25.126 15.8213 25.14 15.672 25.14C15.4013 25.14 15.1727 25.1073 14.986 25.042C14.8087 24.9767 14.6733 24.8787 14.58 24.748C14.4867 24.6173 14.4307 24.4587 14.412 24.272C14.3653 23.572 14.3 22.9327 14.216 22.354C14.1413 21.7753 14.048 21.234 13.936 20.73C13.8333 20.2167 13.712 19.736 13.572 19.288C13.432 18.8307 13.278 18.3873 13.11 17.958C12.9513 17.5287 12.774 17.0947 12.578 16.656L13.152 17.062H12.228L12.844 16.656C12.6013 17.1693 12.3773 17.664 12.172 18.14C11.976 18.616 11.808 19.0967 11.668 19.582C11.528 20.0673 11.4067 20.5807 11.304 21.122C11.2013 21.6633 11.122 22.2513 11.066 22.886C11.0193 23.5207 10.9913 24.23 10.982 25.014ZM18.442 15.186C18.5447 15.158 18.638 15.1393 18.722 15.13C18.8154 15.1207 18.904 15.1113 18.988 15.102C19.0814 15.0927 19.1654 15.088 19.24 15.088C19.604 15.088 19.884 15.13 20.08 15.214C20.276 15.298 20.4114 15.4473 20.486 15.662C20.57 15.8767 20.612 16.1753 20.612 16.558C20.6214 17.2207 20.6447 17.832 20.682 18.392C20.7194 18.952 20.766 19.47 20.822 19.946C20.8874 20.422 20.9667 20.8653 21.06 21.276C21.1534 21.6773 21.2607 22.0553 21.382 22.41C21.5127 22.7553 21.662 23.082 21.83 23.39L21.186 23.012H22.04L21.48 23.39C21.7414 23.0167 21.9887 22.5407 22.222 21.962C22.4647 21.3833 22.684 20.7347 22.88 20.016C23.076 19.288 23.2487 18.518 23.398 17.706C23.5474 16.8847 23.6594 16.0493 23.734 15.2H24.154C24.4434 15.2 24.7 15.2327 24.924 15.298C25.148 15.3633 25.3207 15.4707 25.442 15.62C25.5727 15.76 25.6427 15.9607 25.652 16.222C25.708 16.8007 25.778 17.3747 25.862 17.944C25.946 18.504 26.0487 19.0407 26.17 19.554C26.2914 20.0673 26.4267 20.5573 26.576 21.024C26.7254 21.4813 26.8887 21.906 27.066 22.298C27.2434 22.6807 27.4347 23.0213 27.64 23.32L26.982 23.012H27.892L27.276 23.404C27.4814 23.1053 27.6634 22.7553 27.822 22.354C27.99 21.9527 28.13 21.5047 28.242 21.01C28.3634 20.5153 28.4567 19.9693 28.522 19.372C28.5967 18.7747 28.6527 18.1307 28.69 17.44C28.7274 16.7493 28.7414 15.998 28.732 15.186C28.816 15.158 28.8954 15.1393 28.97 15.13C29.054 15.1207 29.138 15.1113 29.222 15.102C29.306 15.0927 29.39 15.088 29.474 15.088C29.7914 15.088 30.0387 15.13 30.216 15.214C30.3934 15.2887 30.5194 15.4333 30.594 15.648C30.678 15.8627 30.72 16.18 30.72 16.6C30.7107 17.2067 30.6734 17.8087 30.608 18.406C30.552 19.0033 30.468 19.582 30.356 20.142C30.244 20.6927 30.1134 21.22 29.964 21.724C29.8147 22.2187 29.6467 22.676 29.46 23.096C29.2734 23.5067 29.0727 23.8753 28.858 24.202C28.6527 24.5287 28.4334 24.7947 28.2 25C28.1627 25.0093 28.1207 25.0187 28.074 25.028C28.0274 25.0467 27.976 25.0607 27.92 25.07C27.8734 25.0793 27.822 25.084 27.766 25.084C27.71 25.0933 27.654 25.098 27.598 25.098C27.3367 25.098 27.1454 25.0653 27.024 25C26.9027 24.944 26.7487 24.8227 26.562 24.636C26.3474 24.3933 26.1327 24.0947 25.918 23.74C25.7034 23.3853 25.5074 22.984 25.33 22.536C25.1527 22.0787 24.994 21.5793 24.854 21.038C24.714 20.4967 24.5974 19.918 24.504 19.302L24.994 19.806H24.14L24.616 19.302C24.532 19.806 24.4294 20.2867 24.308 20.744C24.1867 21.2013 24.0514 21.6353 23.902 22.046C23.762 22.4567 23.6034 22.844 23.426 23.208C23.258 23.5627 23.0807 23.8893 22.894 24.188C22.7167 24.4867 22.5347 24.7573 22.348 25C22.3107 25.0187 22.2594 25.0327 22.194 25.042C22.1287 25.0607 22.054 25.0747 21.97 25.084C21.8954 25.0933 21.802 25.098 21.69 25.098C21.522 25.098 21.368 25.07 21.228 25.014C21.088 24.9673 20.962 24.8833 20.85 24.762C20.626 24.538 20.402 24.286 20.178 24.006C19.9634 23.7167 19.7627 23.3713 19.576 22.97C19.3894 22.5593 19.2214 22.074 19.072 21.514C18.9227 20.954 18.8014 20.296 18.708 19.54C18.624 18.784 18.5727 17.9113 18.554 16.922C18.554 16.5953 18.5447 16.2827 18.526 15.984C18.5074 15.6853 18.4794 15.4193 18.442 15.186Z" fill="#F3CA52"/>
</g>
<defs>
<clipPath id="clip0_1120_670">
<rect width="40" height="40" fill="white"/>
</clipPath>
</defs>
</svg>
